G04*
G04 #@! TF.GenerationSoftware,Altium Limited,Altium Designer,24.6.1 (21)*
G04*
G04 Layer_Color=32768*
%FSLAX25Y25*%
%MOIN*%
G70*
G04*
G04 #@! TF.SameCoordinates,3E969972-8C0A-4DBC-9D31-E8772DB7AAD8*
G04*
G04*
G04 #@! TF.FilePolarity,Positive*
G04*
G01*
G75*
%ADD11C,0.00787*%
%ADD61C,0.00197*%
D11*
X373022Y241424D02*
Y249298D01*
X355699D02*
X373022D01*
X355699Y241424D02*
Y249298D01*
Y241424D02*
X373022D01*
X326758Y255090D02*
X354144D01*
Y232909D02*
Y255090D01*
X326758Y232909D02*
X354144D01*
X326758D02*
Y255090D01*
X290496Y214539D02*
X305504D01*
X290496D02*
Y222461D01*
X305504D01*
Y214539D02*
Y222461D01*
X295539Y225653D02*
Y240661D01*
X303461D01*
Y225653D02*
Y240661D01*
X295539Y225653D02*
X303461D01*
X359283Y216807D02*
Y230193D01*
X342724D02*
X359283D01*
X342724D02*
X342724Y216807D01*
X359283Y216807D01*
X288004Y252886D02*
Y260807D01*
X272996D02*
X288004D01*
X272996Y252886D02*
Y260807D01*
Y252886D02*
X288004D01*
X414579Y304209D02*
X424421D01*
X424421Y299484D02*
X424421Y304209D01*
X414579Y299484D02*
X424421D01*
X414579D02*
Y304209D01*
X288004Y243039D02*
Y250961D01*
X272996D02*
X288004D01*
X272996Y243039D02*
Y250961D01*
Y243039D02*
X288004D01*
X260539Y272342D02*
Y287351D01*
X268461Y287351D01*
Y272342D02*
Y287351D01*
X260539Y272342D02*
X268461D01*
X397039Y251185D02*
Y266194D01*
X404961D01*
Y251185D02*
Y266194D01*
X397039Y251185D02*
X404961D01*
X284079Y340484D02*
X293921D01*
X284079D02*
Y345209D01*
X293921Y345209D01*
Y340484D02*
Y345209D01*
X255496Y290386D02*
X270504D01*
X255496D02*
Y298307D01*
X270504D01*
Y290386D02*
Y298307D01*
X436996Y351807D02*
X452004D01*
Y343886D02*
Y351807D01*
X436996Y343886D02*
X452004D01*
X436996D02*
Y351807D01*
X448649Y364292D02*
Y491064D01*
X403373Y364292D02*
X448649D01*
X403373D02*
Y491064D01*
X448649Y491064D01*
X404996Y234807D02*
X420004D01*
Y226886D02*
Y234807D01*
X404996Y226886D02*
X420004D01*
X404996D02*
Y234807D01*
X312271Y429002D02*
X312271Y458691D01*
X361877D01*
X361877Y429002D02*
X361877Y458691D01*
X312271Y429002D02*
X361877Y429002D01*
X303349Y491064D02*
X303349Y364292D01*
X258073D02*
X303349D01*
X258073D02*
Y491064D01*
X303349D01*
X308961Y320017D02*
Y335026D01*
X301039Y320017D02*
X308961Y320017D01*
X301039Y320017D02*
Y335026D01*
X308961D01*
X400039Y306185D02*
Y321194D01*
X407961D01*
Y306185D02*
Y321194D01*
X400039Y306185D02*
X407961D01*
X265039Y337842D02*
Y352851D01*
X272961D01*
Y337842D02*
Y352851D01*
X265039Y337842D02*
X272961D01*
Y320017D02*
Y335026D01*
X265039Y320017D02*
X272961D01*
X265039D02*
Y335026D01*
X272961D01*
X265039Y302017D02*
Y317025D01*
X272961D01*
Y302017D02*
Y317025D01*
X265039Y302017D02*
X272961D01*
X444716Y326630D02*
Y341639D01*
X436794Y326630D02*
X444716Y326630D01*
X436794Y341639D02*
X436794Y326630D01*
X436794Y341639D02*
X444716Y341639D01*
X444716Y290816D02*
Y305825D01*
X436794Y290816D02*
X444716Y290816D01*
X436794Y290816D02*
Y305825D01*
X444716Y305825D01*
X436794Y308473D02*
Y323482D01*
X444716D01*
Y308473D02*
Y323482D01*
X436794Y308473D02*
X444716Y308473D01*
D61*
X332378Y190264D02*
Y202429D01*
X289622D02*
X332378D01*
X289622Y190264D02*
Y202429D01*
Y190264D02*
X332378D01*
M02*
