G04*
G04 #@! TF.GenerationSoftware,Altium Limited,Altium Designer,24.6.1 (21)*
G04*
G04 Layer_Color=32768*
%FSLAX25Y25*%
%MOIN*%
G70*
G04*
G04 #@! TF.SameCoordinates,3E969972-8C0A-4DBC-9D31-E8772DB7AAD8*
G04*
G04*
G04 #@! TF.FilePolarity,Positive*
G04*
G01*
G75*
%ADD12C,0.00600*%
%ADD60C,0.00394*%
%ADD61C,0.00197*%
D12*
X272400Y263246D02*
X278150Y263246D01*
Y261997D02*
Y263246D01*
Y261997D02*
X295850D01*
Y263246D01*
X301600Y263246D01*
Y282447D01*
X295850Y282447D02*
X301600Y282447D01*
X295850Y282447D02*
Y283697D01*
X278150D02*
X295850D01*
X278150Y282447D02*
Y283697D01*
X272400Y282447D02*
X278150Y282447D01*
X272400Y263246D02*
Y282447D01*
X414155Y308877D02*
X433355D01*
X414155D02*
Y314777D01*
X413105D02*
X414155D01*
X413105D02*
Y332177D01*
X414155D01*
Y338077D01*
X433355D01*
Y332177D02*
Y338077D01*
Y332177D02*
X434405D01*
Y314777D02*
Y332177D01*
X433355Y314777D02*
X434405D01*
X433355Y308877D02*
Y314777D01*
X275400Y334778D02*
X294600D01*
Y328878D02*
Y334778D01*
Y328878D02*
X295650D01*
Y311478D02*
Y328878D01*
X294600Y311478D02*
X295650Y311478D01*
X294600Y305578D02*
Y311478D01*
X275400Y305578D02*
X294600D01*
X275400D02*
Y311478D01*
X274350Y311478D02*
X275400Y311478D01*
X274350Y311478D02*
Y328878D01*
X275400D01*
Y334778D01*
X449100Y252747D02*
Y275946D01*
X448500Y252747D02*
X449100Y252747D01*
X448500Y246796D02*
Y252747D01*
X411500Y246796D02*
X448500D01*
X411500D02*
Y252747D01*
X410900Y252747D02*
X411500Y252747D01*
X410900Y252747D02*
Y275946D01*
X448500Y275946D02*
X449100Y275946D01*
X448500Y275946D02*
Y281896D01*
X411500D02*
X448500D01*
X411500Y275946D02*
Y281896D01*
X410900Y275946D02*
X411500Y275946D01*
D60*
X382228Y212000D02*
X385772D01*
X384000Y210228D02*
Y213772D01*
X370728Y211500D02*
X374272D01*
X372500Y209728D02*
Y213272D01*
X377500Y246031D02*
Y249969D01*
X375532Y248000D02*
X379468D01*
X391595Y234394D02*
Y238331D01*
X389626Y236362D02*
X393563D01*
X296000Y245031D02*
Y248969D01*
X294032Y247000D02*
X297969D01*
X349532Y199846D02*
X353468D01*
X351500Y197878D02*
Y201815D01*
X328982Y223500D02*
X332919D01*
X330951Y221532D02*
Y225468D01*
X272000Y226031D02*
Y229969D01*
X270031Y228000D02*
X273969D01*
X268354Y198094D02*
Y202031D01*
X266386Y200063D02*
X270323D01*
X364951Y221228D02*
Y224772D01*
X363179Y223000D02*
X366722D01*
X364032Y258500D02*
X367969D01*
X366000Y256532D02*
Y260469D01*
X365000Y233276D02*
Y236819D01*
X363228Y235047D02*
X366772D01*
X419000Y198531D02*
Y202468D01*
X417031Y200500D02*
X420968D01*
X383016Y198000D02*
X384984D01*
X384000Y197016D02*
Y198984D01*
X372500Y197016D02*
Y198984D01*
X371516Y198000D02*
X373484D01*
X260728Y199000D02*
X264272D01*
X262500Y197228D02*
Y200772D01*
X270016Y205500D02*
X271984D01*
X271000Y204516D02*
Y206484D01*
X383228Y211347D02*
X386772D01*
X385000Y209575D02*
Y213118D01*
X397728Y211347D02*
X401272D01*
X399500Y209575D02*
Y213118D01*
X332531Y303847D02*
X336469D01*
X334500Y301878D02*
Y305815D01*
X353532Y303847D02*
X357469D01*
X355500Y301878D02*
Y305815D01*
X343032Y303847D02*
X346969D01*
X345000Y301878D02*
Y305815D01*
X322031Y303847D02*
X325969D01*
X324000Y301878D02*
Y305815D01*
X385032Y303847D02*
X388968D01*
X387000Y301878D02*
Y305815D01*
X374532Y303847D02*
X378468D01*
X376500Y301878D02*
Y305815D01*
X364032Y303847D02*
X367969D01*
X366000Y301878D02*
Y305815D01*
X278532Y427846D02*
X282469D01*
X280500Y425878D02*
Y429815D01*
X437016Y205346D02*
X438984D01*
X438000Y204362D02*
Y206331D01*
X439032Y207846D02*
X442969Y207846D01*
X441000Y209815D02*
X441000Y205878D01*
X438000Y237362D02*
Y239331D01*
X437016Y238347D02*
X438984D01*
X313228Y277346D02*
X316772D01*
X315000Y275575D02*
X315000Y279118D01*
X262531Y261846D02*
X266469D01*
X264500Y259878D02*
Y263815D01*
X389000Y256921D02*
Y260858D01*
X387032Y258890D02*
X390968D01*
X439177Y232909D02*
X443114D01*
X441146Y230941D02*
Y234878D01*
X411531Y240846D02*
X415469D01*
X413500Y238878D02*
Y242815D01*
X258000Y343878D02*
Y347815D01*
X256031Y345847D02*
X259968D01*
X258000Y325878D02*
Y329815D01*
X256031Y327847D02*
X259968D01*
X258000Y307378D02*
Y311315D01*
X256031Y309347D02*
X259968Y309347D01*
X451500Y331835D02*
Y335772D01*
X449532Y333803D02*
X453469D01*
X399500Y218575D02*
Y222118D01*
X397728Y220346D02*
X401272D01*
X377500Y256532D02*
Y260469D01*
X375532Y258500D02*
X379468D01*
X413547Y218575D02*
Y222118D01*
X411776Y220346D02*
X415319D01*
X385000Y218575D02*
Y222118D01*
X383228Y220346D02*
X386772D01*
X426000Y425878D02*
Y429815D01*
X424031Y427846D02*
X427969D01*
X280547Y295950D02*
X280547Y292407D01*
X278776Y294178D02*
X282319D01*
X428255Y351249D02*
X428255Y347706D01*
X426483Y349478D02*
X430027D01*
X411483D02*
X415027D01*
X413255Y347706D02*
Y351249D01*
X293728Y294178D02*
X297272D01*
X295500Y292407D02*
Y295950D01*
X361626Y320008D02*
X365563D01*
X363595Y318039D02*
Y321976D01*
X337476Y320346D02*
X341413D01*
X339445Y322315D02*
X339445Y318378D01*
X337438Y337682D02*
X341375D01*
X339407Y335713D02*
Y339650D01*
X361383Y337682D02*
X365320D01*
X363352Y339650D02*
X363352Y335713D01*
X449532Y297847D02*
X453469D01*
X451500Y295878D02*
Y299815D01*
X449532Y315846D02*
X453469D01*
X451500Y313878D02*
Y317815D01*
D61*
X380063Y205504D02*
Y218496D01*
X387937Y205504D02*
X387937Y218496D01*
X380063D02*
X387937D01*
X380063Y205504D02*
X387937D01*
X368563Y205004D02*
Y217996D01*
X376437Y205004D02*
X376437Y217996D01*
X368563D02*
X376437D01*
X368563Y205004D02*
X376437D01*
X372382Y256465D02*
X382618D01*
X372382Y239535D02*
X382618D01*
X372382D02*
X372382Y256465D01*
X382618D02*
X382618Y239535D01*
X382933Y227701D02*
X400256D01*
X382933Y245024D02*
X400256D01*
Y227701D02*
Y245024D01*
X382933Y227701D02*
Y245024D01*
X287535Y252118D02*
X304465D01*
X287535Y241882D02*
X304465D01*
X287535D02*
Y252118D01*
X304465Y241882D02*
Y252118D01*
X334965Y208410D02*
X368035D01*
X368035Y184098D01*
X334965D02*
X368035D01*
X334965D02*
Y208410D01*
X336069Y231965D02*
X336069Y215035D01*
X325833D02*
X325833Y231965D01*
X336069D01*
X325833Y215035D02*
X336069D01*
X253102Y243158D02*
X290898D01*
X253102Y212842D02*
X290898D01*
X253102D02*
Y243158D01*
X290898Y212842D02*
Y243158D01*
X253000Y212071D02*
X283709D01*
X253000Y188055D02*
Y212071D01*
Y188055D02*
X283709D01*
Y212071D01*
X361014Y216504D02*
X368888Y216504D01*
X361014Y229496D02*
X368888Y229496D01*
X361014Y229496D02*
X361014Y216504D01*
X368888Y216504D02*
Y229496D01*
X360882Y266965D02*
X360882Y250035D01*
X371118D02*
X371118Y266965D01*
X360882Y250035D02*
X371118D01*
X360882Y266965D02*
X371118D01*
X361063Y228551D02*
X368937D01*
X361063Y241543D02*
X368937D01*
X361063D02*
X361063Y228551D01*
X368937D02*
Y241543D01*
X413882Y192035D02*
X424118D01*
X413882Y208965D02*
X424118D01*
X413882Y192035D02*
Y208965D01*
X424118Y192035D02*
Y208965D01*
X382031Y193571D02*
X385968D01*
X382031D02*
Y202429D01*
X385968D01*
X386000Y193571D02*
Y202429D01*
X374500Y193571D02*
Y202429D01*
X370532Y202429D02*
X374468D01*
X370532Y193571D02*
Y202429D01*
Y193571D02*
X374468D01*
X258563Y192504D02*
Y205496D01*
X266437Y192504D02*
X266437Y205496D01*
X258563D02*
X266437D01*
X258563Y192504D02*
X266437D01*
X269425Y208256D02*
X272575D01*
X269425Y202744D02*
Y208256D01*
Y202744D02*
X272575D01*
Y208256D01*
X391496Y207410D02*
Y215283D01*
X378504Y207410D02*
Y215283D01*
Y207410D02*
X391496Y207410D01*
X378504Y215283D02*
X391496D01*
X405996Y207410D02*
Y215283D01*
X393004Y207410D02*
Y215283D01*
Y207410D02*
X405996Y207410D01*
X393004Y215283D02*
X405996D01*
X339618Y295382D02*
Y312311D01*
X329382Y295382D02*
Y312311D01*
X339618D01*
X329382Y295382D02*
X339618D01*
X360618D02*
Y312311D01*
X350382Y295382D02*
Y312311D01*
X360618D01*
X350382Y295382D02*
X360618D01*
X350118Y312311D02*
X350118Y295382D01*
X339882D02*
X339882Y312311D01*
X350118D01*
X339882Y295382D02*
X350118D01*
X329118Y312311D02*
X329118Y295382D01*
X318882D02*
X318882Y312311D01*
X329118D01*
X318882Y295382D02*
X329118D01*
X392118Y312311D02*
X392118Y295382D01*
X381882D02*
X381882Y312311D01*
X392118D01*
X381882Y295382D02*
X392118D01*
X381618Y312311D02*
X381618Y295382D01*
X371382D02*
X371382Y312311D01*
X381618D01*
X371382Y295382D02*
X381618D01*
X371118Y295382D02*
Y312311D01*
X360882Y295382D02*
Y312311D01*
X371118D01*
X360882Y295382D02*
X371118D01*
X273610Y413870D02*
Y441823D01*
X287390Y413870D02*
Y441823D01*
X273610D02*
X287390D01*
X273610Y413870D02*
X287390D01*
X436425Y208102D02*
X439575D01*
X436425Y202591D02*
Y208102D01*
Y202591D02*
X439575D01*
Y208102D01*
X425646Y195839D02*
Y219854D01*
X456354D01*
Y195839D02*
Y219854D01*
X425646Y195839D02*
X456354D01*
X439575Y235591D02*
Y241102D01*
X436425Y235591D02*
X439575D01*
X436425D02*
Y241102D01*
X439575D01*
X318937Y270850D02*
Y283842D01*
X311063Y270850D02*
X311063Y283842D01*
X318937Y283842D01*
X311063Y270850D02*
X318937D01*
X269618Y270311D02*
X269618Y253382D01*
X259382Y253382D02*
X259382Y270311D01*
X269618D01*
X259382Y253382D02*
X269618Y253382D01*
X383882Y267354D02*
X394118D01*
X383882Y250425D02*
X394118D01*
Y267354D01*
X383882Y250425D02*
Y267354D01*
X425791Y220902D02*
Y244917D01*
X456500D01*
Y220902D02*
Y244917D01*
X425791Y220902D02*
X456500Y220902D01*
X405035Y235728D02*
Y245965D01*
X421965Y235728D02*
Y245965D01*
X405035Y245965D02*
X421965Y245965D01*
X405035Y235728D02*
X421965Y235728D01*
X252882Y354311D02*
X263118D01*
X252882Y337382D02*
X263118D01*
Y354311D01*
X252882Y337382D02*
Y354311D01*
X252882Y319382D02*
X263118D01*
X252882Y336311D02*
X263118D01*
X252882Y319382D02*
X252882Y336311D01*
X263118D02*
X263118Y319382D01*
X252882Y317811D02*
X263118D01*
X252882Y300882D02*
X263118D01*
X263118Y317811D01*
X252882Y300882D02*
X252882Y317811D01*
X446382Y325339D02*
X456618D01*
X446382Y342268D02*
X456618D01*
X446382Y325339D02*
X446382Y342268D01*
X456618D02*
X456618Y325339D01*
X393004Y224284D02*
X405996D01*
X393004Y216409D02*
X405996Y216409D01*
X393004Y216409D02*
Y224284D01*
X405996Y216409D02*
Y224284D01*
X372382Y266965D02*
X382618D01*
X372382Y250035D02*
X382618D01*
Y266965D01*
X372382Y250035D02*
Y266965D01*
X407051Y224284D02*
X420043D01*
X407051Y216409D02*
X420043Y216409D01*
X407051Y216409D02*
Y224284D01*
X420043Y216409D02*
Y224284D01*
X378504D02*
X391496D01*
X378504Y216409D02*
X391496Y216409D01*
X378504Y216409D02*
X378504Y224284D01*
X391496Y216409D02*
Y224284D01*
X419110Y413870D02*
X432890D01*
X419110Y441823D02*
X432890D01*
Y413870D02*
Y441823D01*
X419110Y413870D02*
Y441823D01*
X274051Y290241D02*
X287043D01*
X274051Y298115D02*
X287043Y298115D01*
X287043Y290241D02*
X287043Y298115D01*
X274051Y290241D02*
Y298115D01*
X421759Y353415D02*
X434751D01*
X421759Y345540D02*
X434751D01*
X421759D02*
X421759Y353415D01*
X434751Y345540D02*
Y353415D01*
X419751D02*
X419751Y345540D01*
X406759Y345540D02*
X406759Y353415D01*
X406759Y345540D02*
X419751Y345540D01*
X406759Y353415D02*
X419751D01*
X289004Y298115D02*
X289004Y290241D01*
X301996D02*
X301996Y298115D01*
X289004Y298115D02*
X301996Y298115D01*
X289004Y290241D02*
X301996D01*
X371468Y313118D02*
Y326898D01*
X355720Y313118D02*
X371468D01*
X355720D02*
Y326898D01*
X371468D01*
X331571Y313457D02*
Y327236D01*
X347319D01*
Y313457D02*
Y327236D01*
X331571Y313457D02*
X347319D01*
X347281Y330792D02*
Y344571D01*
X331533Y330792D02*
X347281D01*
X331533D02*
Y344571D01*
X347281D01*
X355478Y330792D02*
Y344571D01*
X371226D01*
Y330792D02*
Y344571D01*
X355478Y330792D02*
X371226D01*
X456618Y306311D02*
X456618Y289382D01*
X446382D02*
X446382Y306311D01*
X456618D01*
X446382Y289382D02*
X456618D01*
X446382Y324311D02*
X446382Y307382D01*
X456618D02*
X456618Y324311D01*
X446382Y307382D02*
X456618D01*
X446382Y324311D02*
X456618D01*
M02*
