G04*
G04 #@! TF.GenerationSoftware,Altium Limited,Altium Designer,24.6.1 (21)*
G04*
G04 Layer_Color=16711935*
%FSLAX25Y25*%
%MOIN*%
G70*
G04*
G04 #@! TF.SameCoordinates,3E969972-8C0A-4DBC-9D31-E8772DB7AAD8*
G04*
G04*
G04 #@! TF.FilePolarity,Positive*
G04*
G01*
G75*
%ADD14C,0.01000*%
%ADD60C,0.00394*%
D14*
X311000Y350346D02*
X352500D01*
X311000D02*
Y421347D01*
X394000D01*
Y350346D02*
Y421347D01*
X352500Y350346D02*
X394000D01*
D60*
X332996Y188823D02*
X369079D01*
X323154Y188429D02*
Y192365D01*
X325121D01*
X325777Y191709D01*
Y190397D01*
X325121Y189741D01*
X323154D01*
X329713Y191709D02*
X329057Y192365D01*
X327745D01*
X327089Y191709D01*
Y189085D01*
X327745Y188429D01*
X329057D01*
X329713Y189085D01*
X331025Y192365D02*
Y188429D01*
X332993D01*
X333649Y189085D01*
Y189741D01*
X332993Y190397D01*
X331025D01*
X332993D01*
X333649Y191053D01*
Y191709D01*
X332993Y192365D01*
X331025D01*
X341520D02*
X338896D01*
Y188429D01*
X341520D01*
X338896Y190397D02*
X340208D01*
X342832Y192365D02*
Y188429D01*
X344800D01*
X345456Y189085D01*
Y191709D01*
X344800Y192365D01*
X342832D01*
X349392Y191709D02*
X348736Y192365D01*
X347424D01*
X346768Y191709D01*
Y189085D01*
X347424Y188429D01*
X348736D01*
X349392Y189085D01*
Y190397D01*
X348080D01*
X353328Y192365D02*
X350704D01*
Y188429D01*
X353328D01*
X350704Y190397D02*
X352016D01*
M02*
