G04*
G04 #@! TF.GenerationSoftware,Altium Limited,Altium Designer,24.6.1 (21)*
G04*
G04 Layer_Color=0*
%FSLAX25Y25*%
%MOIN*%
G70*
G04*
G04 #@! TF.SameCoordinates,3E969972-8C0A-4DBC-9D31-E8772DB7AAD8*
G04*
G04*
G04 #@! TF.FilePolarity,Positive*
G04*
G01*
G75*
%ADD60C,0.00394*%
%ADD61C,0.00197*%
D60*
X364361Y243392D02*
Y247329D01*
X362392Y245361D02*
X366329D01*
X338482Y244000D02*
X342419D01*
X340451Y242032D02*
Y245969D01*
X296031Y218500D02*
X299969D01*
X298000Y216531D02*
Y220468D01*
X299500Y231189D02*
Y235125D01*
X297532Y233157D02*
X301468D01*
X351004Y221532D02*
Y225468D01*
X349035Y223500D02*
X352972D01*
X280500Y254878D02*
Y258815D01*
X278532Y256846D02*
X282469D01*
X417531Y301847D02*
X421468D01*
X419500Y299878D02*
Y303815D01*
X280500Y245031D02*
Y248969D01*
X278532Y247000D02*
X282469D01*
X264500Y277878D02*
Y281815D01*
X262531Y279847D02*
X266469D01*
X401000Y256721D02*
Y260658D01*
X399031Y258689D02*
X402969D01*
X287032Y342846D02*
X290968D01*
X289000Y340878D02*
Y344815D01*
X261032Y294346D02*
X264968D01*
X263000Y292378D02*
Y296315D01*
X442531Y347847D02*
X446468D01*
X444500Y345878D02*
Y349815D01*
X426011Y425710D02*
Y429647D01*
X424043Y427678D02*
X427980D01*
X410532Y230847D02*
X414468D01*
X412500Y228878D02*
Y232815D01*
X333500Y441878D02*
Y445815D01*
X331532Y443847D02*
X335469D01*
X280711Y425710D02*
X280711Y429647D01*
X278742Y427678D02*
X282679Y427678D01*
X305000Y325553D02*
Y329490D01*
X303031Y327521D02*
X306968D01*
X404000Y311721D02*
Y315658D01*
X402032Y313689D02*
X405969D01*
X269000Y343378D02*
Y347315D01*
X267032Y345346D02*
X270969D01*
X269000Y325553D02*
Y329490D01*
X267032Y327521D02*
X270969D01*
X269000Y307553D02*
Y311490D01*
X267032Y309521D02*
X270969D01*
X440755Y332166D02*
Y336103D01*
X438787Y334135D02*
X442724D01*
X440755Y296352D02*
Y300289D01*
X438787Y298321D02*
X442724D01*
X440755Y314009D02*
Y317946D01*
X438787Y315978D02*
X442724D01*
D61*
X311000Y194378D02*
Y198315D01*
X309032Y196346D02*
X312968D01*
M02*
