G04*
G04 #@! TF.GenerationSoftware,Altium Limited,Altium Designer,24.6.1 (21)*
G04*
G04 Layer_Physical_Order=1*
G04 Layer_Color=255*
%FSLAX25Y25*%
%MOIN*%
G70*
G04*
G04 #@! TF.SameCoordinates,3E969972-8C0A-4DBC-9D31-E8772DB7AAD8*
G04*
G04*
G04 #@! TF.FilePolarity,Positive*
G04*
G01*
G75*
%ADD14C,0.01000*%
%ADD16C,0.01968*%
%ADD17R,0.04921X0.04803*%
%ADD18R,0.06614X0.06614*%
%ADD19R,0.01181X0.03543*%
%ADD20R,0.03543X0.01181*%
%ADD21R,0.07500X0.10984*%
%ADD22R,0.04758X0.03985*%
%ADD23R,0.03985X0.04758*%
%ADD24R,0.05906X0.06102*%
%ADD25R,0.01575X0.05315*%
%ADD26R,0.05906X0.07480*%
G04:AMPARAMS|DCode=27|XSize=59.26mil|YSize=22.43mil|CornerRadius=11.22mil|HoleSize=0mil|Usage=FLASHONLY|Rotation=180.000|XOffset=0mil|YOffset=0mil|HoleType=Round|Shape=RoundedRectangle|*
%AMROUNDEDRECTD27*
21,1,0.05926,0.00000,0,0,180.0*
21,1,0.03683,0.02243,0,0,180.0*
1,1,0.02243,-0.01841,0.00000*
1,1,0.02243,0.01841,0.00000*
1,1,0.02243,0.01841,0.00000*
1,1,0.02243,-0.01841,0.00000*
%
%ADD27ROUNDEDRECTD27*%
%ADD28R,0.05926X0.02243*%
%ADD29R,0.06102X0.05906*%
%ADD30R,0.10630X0.12992*%
%ADD31R,0.10630X0.03937*%
%ADD32R,0.03937X0.03150*%
%ADD33R,0.05750X0.02200*%
%ADD34R,0.03150X0.02362*%
%ADD35R,0.22047X0.05118*%
%ADD36R,0.03150X0.03937*%
%ADD37R,0.02362X0.03150*%
%ADD38R,0.09449X0.05118*%
%ADD39R,0.25591X0.24410*%
%ADD40R,0.02200X0.05900*%
%ADD41R,0.03150X0.01339*%
%ADD42R,0.02559X0.01339*%
%ADD43R,0.06732X0.09016*%
%ADD44R,0.09300X0.21200*%
%ADD45C,0.05709*%
%ADD46R,0.04724X0.04724*%
%ADD47C,0.04724*%
%ADD48C,0.06299*%
G04:AMPARAMS|DCode=49|XSize=62.99mil|YSize=62.99mil|CornerRadius=15.75mil|HoleSize=0mil|Usage=FLASHONLY|Rotation=180.000|XOffset=0mil|YOffset=0mil|HoleType=Round|Shape=RoundedRectangle|*
%AMROUNDEDRECTD49*
21,1,0.06299,0.03150,0,0,180.0*
21,1,0.03150,0.06299,0,0,180.0*
1,1,0.03150,-0.01575,0.01575*
1,1,0.03150,0.01575,0.01575*
1,1,0.03150,0.01575,-0.01575*
1,1,0.03150,-0.01575,-0.01575*
%
%ADD49ROUNDEDRECTD49*%
%ADD50C,0.12598*%
%ADD51C,0.23622*%
%ADD52R,0.06102X0.06102*%
%ADD53C,0.06102*%
%ADD54C,0.11811*%
%ADD55C,0.03150*%
%ADD56C,0.05906*%
%ADD57C,0.07874*%
G36*
X369000Y458347D02*
Y450347D01*
X351500D01*
Y466847D01*
X360500D01*
X369000Y458347D01*
D02*
G37*
G36*
X446000Y498846D02*
X422500D01*
X395000Y471347D01*
Y446347D01*
X373000D01*
Y483347D01*
X418500Y528847D01*
X446000D01*
Y498846D01*
D02*
G37*
G36*
X350000Y441347D02*
X416500Y441347D01*
Y455346D01*
X435500D01*
Y429846D01*
X270500D01*
Y457346D01*
X334000D01*
X350000Y441347D01*
D02*
G37*
G36*
X273000Y346346D02*
X252000D01*
Y356846D01*
X273000D01*
Y346346D01*
D02*
G37*
G36*
X457000Y334282D02*
X456500Y334183D01*
X456452Y334298D01*
X456000Y334486D01*
X455142D01*
X455037Y334442D01*
X447963D01*
X447858Y334486D01*
X437000D01*
X436664Y334347D01*
X436548Y334298D01*
X436361Y333846D01*
Y316347D01*
X436548Y315895D01*
X437000Y315707D01*
X456000D01*
X456452Y315895D01*
X456500Y316010D01*
X457000Y315911D01*
Y315347D01*
Y298346D01*
Y297986D01*
X443338D01*
Y298133D01*
X438172D01*
Y297986D01*
X436000D01*
X435548Y297798D01*
X435361Y297346D01*
Y286846D01*
X435548Y286395D01*
X436000Y286207D01*
X457000D01*
Y188000D01*
X421688D01*
X421577Y188325D01*
X421548Y188500D01*
X422095Y189213D01*
X422452Y190075D01*
X422574Y191000D01*
Y193413D01*
X422642D01*
Y199707D01*
X453500D01*
X453952Y199894D01*
X454139Y200346D01*
Y284846D01*
X453952Y285298D01*
X453500Y285486D01*
X434500D01*
X434048Y285298D01*
X433861Y284846D01*
Y277346D01*
Y245182D01*
X433910Y245065D01*
Y244938D01*
X433947Y244847D01*
X434000D01*
Y233347D01*
X433947D01*
X433910Y233255D01*
Y233128D01*
X433861Y233010D01*
Y232486D01*
X428000D01*
X427548Y232298D01*
X427361Y231846D01*
Y225346D01*
X427548Y224894D01*
X428000Y224707D01*
X433861D01*
Y214160D01*
X433361Y213953D01*
X433167Y214146D01*
X432494Y214535D01*
X431743Y214736D01*
X430966D01*
X430215Y214535D01*
X429541Y214146D01*
X428992Y213597D01*
X428603Y212923D01*
X428402Y212172D01*
Y211395D01*
X428603Y210644D01*
X428992Y209970D01*
X429541Y209421D01*
X430215Y209032D01*
X430966Y208831D01*
X431743D01*
X432494Y209032D01*
X433167Y209421D01*
X433361Y209614D01*
X433861Y209407D01*
Y207986D01*
X414500D01*
X414048Y207799D01*
X413861Y207347D01*
Y200346D01*
X414048Y199894D01*
X414500Y199707D01*
X415358D01*
Y193413D01*
X415426D01*
Y191000D01*
X415548Y190075D01*
X415905Y189213D01*
X416452Y188500D01*
X416423Y188325D01*
X416312Y188000D01*
X252000D01*
Y220861D01*
X276570D01*
X276904Y220361D01*
X276871Y220283D01*
Y220156D01*
X276823Y220038D01*
X276861Y219946D01*
Y211500D01*
X277048Y211048D01*
X277500Y210861D01*
X297500D01*
X297952Y211048D01*
X298139Y211500D01*
Y212620D01*
X298500Y212861D01*
X306500D01*
X306952Y213048D01*
X307139Y213500D01*
Y224006D01*
X307165Y224069D01*
Y224931D01*
X307139Y224994D01*
Y232861D01*
X310500D01*
X310952Y233048D01*
X311139Y233500D01*
Y250500D01*
X310952Y250952D01*
X310500Y251139D01*
X296000D01*
X295548Y250952D01*
X295361Y250500D01*
Y243358D01*
Y235139D01*
X289520D01*
X289510Y235135D01*
X277718D01*
X277709Y235139D01*
X260139D01*
Y243861D01*
X280500D01*
X280952Y244048D01*
X281139Y244500D01*
Y250707D01*
X289000D01*
X289452Y250894D01*
X289639Y251346D01*
Y265982D01*
X290101Y266173D01*
X291714Y264560D01*
X291714Y264560D01*
X292074Y264319D01*
X292500Y264234D01*
X294260D01*
Y263656D01*
X301190D01*
Y267037D01*
X294260D01*
Y266458D01*
X292961D01*
X291700Y267719D01*
X291891Y268181D01*
X291931D01*
X292727Y268511D01*
X293336Y269120D01*
X293383Y269234D01*
X294260D01*
Y268656D01*
X301190D01*
Y272037D01*
X294260D01*
Y271458D01*
X293383D01*
X293336Y271573D01*
X292727Y272182D01*
X291931Y272512D01*
X291069D01*
X290273Y272182D01*
X289664Y271573D01*
X289624Y271476D01*
X289083D01*
X288836Y272073D01*
X288227Y272682D01*
X287431Y273012D01*
X286569D01*
X285773Y272682D01*
X285164Y272073D01*
X284835Y271277D01*
Y270416D01*
X285164Y269620D01*
X285773Y269011D01*
X286569Y268681D01*
X287407D01*
X287544Y268548D01*
X287597Y268486D01*
X287366Y267986D01*
X280196D01*
X279990Y268486D01*
X280139Y268847D01*
Y271847D01*
X280109Y271919D01*
X279968Y272346D01*
X280109Y272775D01*
X280139Y272847D01*
Y277346D01*
X279952Y277799D01*
X279500Y277986D01*
X272765D01*
X270952Y279799D01*
X270526Y279975D01*
X270298Y280108D01*
X270139Y280346D01*
Y288846D01*
X269952Y289299D01*
X269500Y289486D01*
X263139D01*
Y299346D01*
X262952Y299798D01*
X262500Y299986D01*
X253000D01*
X252548Y299798D01*
X252500Y299682D01*
X252000Y299782D01*
Y327847D01*
Y345346D01*
Y345707D01*
X266417D01*
Y345534D01*
X271583D01*
Y345707D01*
X273000D01*
X273452Y345895D01*
X273639Y346346D01*
Y356846D01*
X273452Y357298D01*
X273000Y357486D01*
X252000D01*
Y362000D01*
X310861D01*
Y327486D01*
X310139D01*
X310139Y340347D01*
X309952Y340798D01*
X305452Y345298D01*
X305000Y345486D01*
X291000Y345486D01*
X290548Y345299D01*
X290361Y344847D01*
Y327346D01*
X290548Y326894D01*
X291000Y326707D01*
X294804D01*
X294995Y326245D01*
X285165Y316416D01*
X284665Y316582D01*
Y316777D01*
X284336Y317573D01*
X283727Y318182D01*
X282931Y318512D01*
X282069D01*
X281273Y318182D01*
X280664Y317573D01*
X280335Y316777D01*
Y315916D01*
X280664Y315120D01*
X281273Y314511D01*
X281388Y314463D01*
Y313069D01*
X280809D01*
Y305988D01*
X284191D01*
Y313069D01*
X283612D01*
Y314463D01*
X283727Y314511D01*
X284336Y315120D01*
X284361Y315180D01*
X284861Y315081D01*
Y305847D01*
X285048Y305395D01*
X285500Y305207D01*
X289000D01*
X289452Y305395D01*
X289639Y305847D01*
Y310582D01*
X290348Y311290D01*
X290809Y311099D01*
Y305988D01*
X291388D01*
Y296737D01*
X290382D01*
Y291619D01*
X294713D01*
Y296737D01*
X293612D01*
Y305988D01*
X294191D01*
Y313069D01*
X292780D01*
X292588Y313531D01*
X293265Y314207D01*
X309635D01*
X309826Y313745D01*
X297667Y301586D01*
X297426Y301225D01*
X297341Y300799D01*
X297341Y300799D01*
Y296737D01*
X296287D01*
Y291619D01*
X300618D01*
Y296737D01*
X299565D01*
Y300339D01*
X314622Y315396D01*
X331374D01*
Y315248D01*
X335066D01*
X335131Y315091D01*
X335155Y314923D01*
X335392Y314521D01*
X335459Y314471D01*
X335490Y314394D01*
X335648Y314329D01*
X335784Y314227D01*
X335866Y314239D01*
X335942Y314207D01*
X336806D01*
X336882Y314239D01*
X336965Y314227D01*
X337101Y314329D01*
X337258Y314394D01*
X337289Y314471D01*
X337356Y314521D01*
X337593Y314923D01*
X337617Y315091D01*
X337683Y315248D01*
Y324806D01*
X338000D01*
X338452Y324993D01*
X338639Y325445D01*
Y332583D01*
X341808D01*
Y342780D01*
X338639D01*
Y362000D01*
X366361D01*
Y342780D01*
X361101D01*
X360909Y342808D01*
X360558Y343041D01*
X360452Y343299D01*
X360000Y343486D01*
X347950D01*
X347907Y343468D01*
X347861Y343479D01*
X347389Y343413D01*
X347214Y343310D01*
X347112Y343268D01*
X346612Y343472D01*
Y344963D01*
X346727Y345011D01*
X347336Y345620D01*
X347665Y346416D01*
Y347277D01*
X347336Y348073D01*
X346727Y348682D01*
X345931Y349012D01*
X345069D01*
X344273Y348682D01*
X343664Y348073D01*
X343335Y347277D01*
Y346416D01*
X343664Y345620D01*
X344273Y345011D01*
X344388Y344963D01*
Y342780D01*
X343147D01*
Y340900D01*
X343010Y340843D01*
X342862Y340832D01*
X342793Y340753D01*
X342695Y340712D01*
X342638Y340575D01*
X342541Y340463D01*
X342394Y340024D01*
X342401Y339919D01*
X342361Y339821D01*
Y332347D01*
X342548Y331894D01*
X343000Y331707D01*
X354879D01*
X355036Y331772D01*
X355204Y331796D01*
X355605Y332033D01*
X355656Y332099D01*
X355733Y332131D01*
X356186Y332194D01*
X356303Y332166D01*
X356388Y332090D01*
Y331230D01*
X356273Y331182D01*
X355664Y330573D01*
X355335Y329777D01*
Y328916D01*
X355664Y328120D01*
X356273Y327511D01*
X357069Y327181D01*
X357931D01*
X358727Y327511D01*
X359336Y328120D01*
X359665Y328916D01*
Y329777D01*
X359336Y330573D01*
X358727Y331182D01*
X358612Y331230D01*
Y332583D01*
X359612D01*
Y334464D01*
X359789Y334537D01*
X359976Y334578D01*
X360364Y334847D01*
X360397Y334897D01*
X360452Y334920D01*
X360950Y334816D01*
Y332583D01*
X366361D01*
Y329132D01*
X366373Y329102D01*
X366364Y329070D01*
X366465Y328880D01*
X366548Y328680D01*
X366579Y328668D01*
X366594Y328638D01*
X366694Y328557D01*
X366710Y328552D01*
X366718Y328538D01*
X366884Y328496D01*
X367187Y328349D01*
X367295Y328071D01*
X367335Y327934D01*
Y327416D01*
X367664Y326620D01*
X368273Y326011D01*
X368388Y325963D01*
Y325106D01*
X367335D01*
Y323689D01*
X367310Y323225D01*
X367098Y323128D01*
X366883Y323039D01*
X366878Y323026D01*
X366866Y323021D01*
X366531Y322659D01*
X366450Y322441D01*
X366361Y322225D01*
Y314347D01*
X366548Y313895D01*
X367000Y313707D01*
X399120D01*
X399361Y313347D01*
Y302847D01*
X399548Y302395D01*
X404048Y297895D01*
X404500Y297707D01*
X418500D01*
X418952Y297895D01*
X419139Y298346D01*
Y309106D01*
X419564Y309287D01*
X419639Y309287D01*
X422945D01*
Y316368D01*
X422945Y316368D01*
X422945D01*
X422945Y316368D01*
X423043Y316828D01*
X423336Y317120D01*
X423665Y317916D01*
Y318777D01*
X423336Y319573D01*
X422727Y320182D01*
X421931Y320512D01*
X421069D01*
X420273Y320182D01*
X419664Y319573D01*
X419335Y318777D01*
Y317916D01*
X419664Y317120D01*
X419916Y316868D01*
X419709Y316368D01*
X419564D01*
Y313627D01*
X419064Y313527D01*
X418952Y313798D01*
X418500Y313986D01*
X417945D01*
Y316368D01*
X414564D01*
Y313986D01*
X409696D01*
X409505Y314448D01*
X422952Y327894D01*
X423139Y328346D01*
Y337846D01*
X422952Y338299D01*
X422500Y338486D01*
X419500D01*
X419048Y338299D01*
X418861Y337846D01*
Y331611D01*
X418407Y331158D01*
X417945Y331349D01*
Y337668D01*
X417367D01*
Y346919D01*
X418373D01*
Y348724D01*
X418873Y348823D01*
X419164Y348120D01*
X419773Y347511D01*
X420569Y347181D01*
X421431D01*
X422227Y347511D01*
X422637Y347921D01*
X423137Y347714D01*
Y346919D01*
X427468D01*
Y352037D01*
X423137D01*
Y350979D01*
X422637Y350772D01*
X422227Y351182D01*
X421431Y351512D01*
X420569D01*
X419773Y351182D01*
X419164Y350573D01*
X418873Y349870D01*
X418373Y349969D01*
Y352037D01*
X414042D01*
Y346919D01*
X415143D01*
Y337668D01*
X414564D01*
Y330587D01*
X417183D01*
X417375Y330125D01*
X414235Y326986D01*
X394639D01*
Y362000D01*
X457000D01*
Y334282D01*
D02*
G37*
G36*
X456000Y316347D02*
X437000D01*
Y333846D01*
X447858D01*
Y333803D01*
X455142D01*
Y333846D01*
X456000D01*
Y316347D01*
D02*
G37*
G36*
X360000Y335372D02*
X359612Y335103D01*
X355281D01*
Y332583D01*
X354879Y332347D01*
X343000D01*
Y339821D01*
X343147Y340260D01*
X347478D01*
Y342780D01*
X347950Y342846D01*
X360000D01*
Y335372D01*
D02*
G37*
G36*
X305000Y344847D02*
X309500Y340347D01*
X309500Y327346D01*
X291000D01*
Y344847D01*
X305000Y344847D01*
D02*
G37*
G36*
X338000Y325445D02*
X337043D01*
Y315248D01*
X336806Y314846D01*
X335942D01*
X335705Y315248D01*
Y317768D01*
X331374D01*
Y317620D01*
X314161D01*
X313736Y317535D01*
X313375Y317294D01*
X313375Y317294D01*
X310928Y314846D01*
X293000D01*
X291222Y313069D01*
X290809D01*
Y312656D01*
X289000Y310846D01*
Y305847D01*
X285500D01*
Y315846D01*
X296361Y326707D01*
X309500D01*
X309836Y326847D01*
X311500D01*
Y366347D01*
X338000D01*
Y325445D01*
D02*
G37*
G36*
X394000Y326346D02*
X414500D01*
X419500Y331347D01*
Y337846D01*
X422500D01*
Y328346D01*
X408500Y314347D01*
X367000D01*
Y322225D01*
X367335Y322587D01*
X367500Y322587D01*
X371665D01*
Y325106D01*
X370612D01*
Y325985D01*
X371061Y326285D01*
X371540Y327002D01*
X371708Y327847D01*
X371540Y328691D01*
X371061Y329408D01*
X370345Y329886D01*
X369500Y330054D01*
X368655Y329886D01*
X367939Y329408D01*
X367767Y329150D01*
X367099Y329051D01*
X367000Y329132D01*
Y365846D01*
X394000D01*
Y326346D01*
D02*
G37*
G36*
X418500Y298346D02*
X404500D01*
X400000Y302847D01*
Y313347D01*
X418500D01*
Y298346D01*
D02*
G37*
G36*
X457000Y286846D02*
X436000D01*
Y297346D01*
X457000D01*
Y286846D01*
D02*
G37*
G36*
X262500Y288846D02*
X269500D01*
Y280346D01*
X253000D01*
Y299346D01*
X262500D01*
Y288846D01*
D02*
G37*
G36*
X252548Y279894D02*
X253000Y279707D01*
X257120D01*
X257361Y279346D01*
Y272486D01*
X252000D01*
Y279911D01*
X252500Y280010D01*
X252548Y279894D01*
D02*
G37*
G36*
X289000Y267274D02*
Y251346D01*
X281139D01*
Y262347D01*
X281000Y262683D01*
Y263347D01*
X273500D01*
Y267347D01*
X288928D01*
X289000Y267274D01*
D02*
G37*
G36*
X279296Y271847D02*
X279500D01*
Y268847D01*
X272500D01*
Y262347D01*
X280500D01*
Y244500D01*
X259000D01*
Y261846D01*
X269500D01*
Y271847D01*
X269521Y271868D01*
X279274D01*
X279296Y271847D01*
D02*
G37*
G36*
X310500Y233500D02*
X296000D01*
Y243358D01*
Y250500D01*
X310500D01*
Y233500D01*
D02*
G37*
G36*
X272500Y277346D02*
X279500D01*
Y272847D01*
X268500D01*
Y262486D01*
X259000D01*
X258548Y262298D01*
X258361Y261846D01*
Y244500D01*
X258548Y244048D01*
X259000Y243861D01*
X259500D01*
Y234500D01*
X277709D01*
Y234496D01*
X289520D01*
Y234500D01*
X295361D01*
Y233500D01*
X295500Y233164D01*
Y233000D01*
X295664D01*
X296000Y232861D01*
X306500D01*
Y213500D01*
X298500D01*
Y221500D01*
X289520D01*
Y221504D01*
X277709D01*
Y221500D01*
X252000D01*
Y271847D01*
X258000D01*
Y279346D01*
X270500D01*
X272500Y277346D01*
D02*
G37*
G36*
X297500Y211500D02*
X277500D01*
Y220000D01*
X277462Y220038D01*
X277653Y220500D01*
X297500D01*
Y211500D01*
D02*
G37*
G36*
X453500Y200346D02*
X422642D01*
Y200500D01*
X419232D01*
X419000Y200531D01*
X418768Y200500D01*
X415358D01*
Y200346D01*
X414500D01*
Y207347D01*
X434500D01*
Y225346D01*
X428000D01*
Y231846D01*
X434500D01*
Y233010D01*
X434639Y233347D01*
Y244847D01*
X434500Y245182D01*
Y277346D01*
Y284846D01*
X453500D01*
Y200346D01*
D02*
G37*
%LPC*%
G36*
X450626Y350429D02*
X444688D01*
Y345264D01*
X450626D01*
Y346734D01*
X452117D01*
X452164Y346620D01*
X452773Y346011D01*
X453569Y345681D01*
X454431D01*
X455227Y346011D01*
X455836Y346620D01*
X456165Y347416D01*
Y348277D01*
X455836Y349073D01*
X455227Y349682D01*
X454431Y350012D01*
X453569D01*
X452773Y349682D01*
X452164Y349073D01*
X452117Y348958D01*
X450626D01*
Y350429D01*
D02*
G37*
G36*
X412468Y352037D02*
X408137D01*
Y346919D01*
X409190D01*
Y345855D01*
X408773Y345682D01*
X408164Y345073D01*
X407835Y344277D01*
Y343416D01*
X408164Y342620D01*
X408773Y342011D01*
X409569Y341681D01*
X410431D01*
X411227Y342011D01*
X411836Y342620D01*
X412165Y343416D01*
Y344277D01*
X411836Y345073D01*
X411414Y345495D01*
Y346919D01*
X412468D01*
Y352037D01*
D02*
G37*
G36*
X433373D02*
X429042D01*
Y346919D01*
X430143D01*
Y337668D01*
X429564D01*
Y330587D01*
X432945D01*
Y337668D01*
X432367D01*
Y346919D01*
X433373D01*
Y350847D01*
Y352037D01*
D02*
G37*
G36*
X426431Y344512D02*
X425569D01*
X424773Y344182D01*
X424164Y343573D01*
X423835Y342777D01*
Y341916D01*
X424164Y341120D01*
X424773Y340511D01*
X425015Y340410D01*
Y337668D01*
X424564D01*
Y330587D01*
X427946D01*
Y337668D01*
X427239D01*
Y340524D01*
X427836Y341120D01*
X428165Y341916D01*
Y342777D01*
X427836Y343573D01*
X427227Y344182D01*
X426431Y344512D01*
D02*
G37*
G36*
X284191Y334369D02*
X280809D01*
Y327847D01*
Y327288D01*
X281388D01*
Y326730D01*
X281273Y326682D01*
X280664Y326073D01*
X280335Y325277D01*
Y324416D01*
X280664Y323620D01*
X281273Y323011D01*
X282069Y322681D01*
X282931D01*
X283727Y323011D01*
X284336Y323620D01*
X284665Y324416D01*
Y325277D01*
X284336Y326073D01*
X283727Y326682D01*
X283612Y326730D01*
Y327288D01*
X284191D01*
Y334244D01*
Y334369D01*
D02*
G37*
G36*
X289191D02*
X285809D01*
Y327288D01*
X286388D01*
Y325230D01*
X286273Y325182D01*
X285664Y324573D01*
X285335Y323777D01*
Y322916D01*
X285664Y322120D01*
X286273Y321511D01*
X287069Y321181D01*
X287931D01*
X288727Y321511D01*
X289336Y322120D01*
X289665Y322916D01*
Y323777D01*
X289336Y324573D01*
X288727Y325182D01*
X288612Y325230D01*
Y327288D01*
X289191D01*
Y334369D01*
D02*
G37*
G36*
X426931Y321012D02*
X426069D01*
X425273Y320682D01*
X424664Y320073D01*
X424335Y319277D01*
Y318416D01*
X424664Y317620D01*
X425266Y317019D01*
Y316368D01*
X424564D01*
Y309704D01*
Y309287D01*
X427946D01*
Y315347D01*
Y316368D01*
X427489D01*
Y316913D01*
X427727Y317011D01*
X428336Y317620D01*
X428665Y318416D01*
Y319277D01*
X428336Y320073D01*
X427727Y320682D01*
X426931Y321012D01*
D02*
G37*
G36*
X273000Y327847D02*
X254000D01*
X253548Y327659D01*
X253361Y327207D01*
Y309846D01*
X253548Y309395D01*
X254000Y309207D01*
X273000D01*
X273452Y309395D01*
X273639Y309846D01*
Y327207D01*
X273452Y327659D01*
X273000Y327847D01*
D02*
G37*
G36*
X279190Y313069D02*
X275810D01*
Y305988D01*
X276388D01*
Y296737D01*
X275429D01*
Y292347D01*
Y291619D01*
X279760D01*
Y296737D01*
X278612D01*
Y305988D01*
X279190D01*
Y313069D01*
D02*
G37*
G36*
X391000Y304486D02*
X320000D01*
X319548Y304298D01*
X319361Y303847D01*
Y289347D01*
X319548Y288895D01*
X320000Y288707D01*
X391000D01*
X391452Y288895D01*
X391639Y289347D01*
Y303847D01*
X391452Y304298D01*
X391000Y304486D01*
D02*
G37*
G36*
X285665Y296737D02*
X281335D01*
Y291619D01*
X282388D01*
Y289846D01*
X282388Y289846D01*
X282473Y289421D01*
X282714Y289060D01*
X284714Y287060D01*
X284714Y287060D01*
X285074Y286819D01*
X285500Y286735D01*
X285500Y286735D01*
X288617D01*
X288664Y286620D01*
X289273Y286011D01*
X290069Y285681D01*
X290931D01*
X291727Y286011D01*
X292336Y286620D01*
X292665Y287416D01*
Y288277D01*
X292336Y289073D01*
X291727Y289682D01*
X290931Y290012D01*
X290069D01*
X289273Y289682D01*
X288664Y289073D01*
X288617Y288958D01*
X285961D01*
X284612Y290307D01*
Y291619D01*
X285665D01*
Y296737D01*
D02*
G37*
G36*
X282431Y282512D02*
X281569D01*
X280773Y282182D01*
X280241Y281649D01*
X279880Y281727D01*
X279741Y281803D01*
Y282037D01*
X272810D01*
Y278656D01*
X279741D01*
Y278890D01*
X279880Y278966D01*
X280241Y279044D01*
X280773Y278511D01*
X281569Y278181D01*
X282431D01*
X283227Y278511D01*
X283836Y279120D01*
X284165Y279916D01*
Y280777D01*
X283836Y281573D01*
X283227Y282182D01*
X282431Y282512D01*
D02*
G37*
G36*
X315431Y288012D02*
X314569D01*
X313773Y287682D01*
X313164Y287073D01*
X312835Y286277D01*
Y285416D01*
X313164Y284620D01*
X313773Y284011D01*
X313888Y283963D01*
Y282465D01*
X312441D01*
Y281458D01*
X301190D01*
Y282037D01*
X294260D01*
Y278656D01*
X301190D01*
Y279235D01*
X312441D01*
Y278134D01*
X317559D01*
Y282465D01*
X316112D01*
Y283963D01*
X316227Y284011D01*
X316836Y284620D01*
X317165Y285416D01*
Y286277D01*
X316836Y287073D01*
X316227Y287682D01*
X315431Y288012D01*
D02*
G37*
G36*
X304431Y277512D02*
X303569D01*
X302773Y277182D01*
X302164Y276573D01*
X302117Y276458D01*
X301190D01*
Y277037D01*
X294260D01*
Y273656D01*
X301190D01*
Y274235D01*
X302117D01*
X302164Y274120D01*
X302773Y273511D01*
X303569Y273181D01*
X304431D01*
X305227Y273511D01*
X305836Y274120D01*
X306165Y274916D01*
Y275777D01*
X305836Y276573D01*
X305227Y277182D01*
X304431Y277512D01*
D02*
G37*
G36*
X317559Y276559D02*
X312441D01*
Y275458D01*
X310883D01*
X310836Y275573D01*
X310227Y276182D01*
X309431Y276512D01*
X308569D01*
X307773Y276182D01*
X307164Y275573D01*
X306835Y274777D01*
Y273916D01*
X307164Y273120D01*
X307773Y272511D01*
X308569Y272181D01*
X309431D01*
X310227Y272511D01*
X310836Y273120D01*
X310883Y273235D01*
X312441D01*
Y272228D01*
X317559D01*
Y276559D01*
D02*
G37*
G36*
X423500Y276986D02*
X406000D01*
X405548Y276799D01*
X405361Y276346D01*
Y270227D01*
X405000Y269986D01*
X396500D01*
X396048Y269798D01*
X395861Y269346D01*
Y259846D01*
X395583Y259360D01*
X395139Y259543D01*
Y272346D01*
X394952Y272798D01*
X394452Y273299D01*
X394000Y273486D01*
X358500D01*
X358048Y273299D01*
X357861Y272847D01*
Y258846D01*
X358048Y258395D01*
X358500Y258207D01*
X361861D01*
Y252197D01*
X361399Y252005D01*
X358452Y254952D01*
X358000Y255139D01*
X352639D01*
X352320Y255007D01*
X352000Y255139D01*
X327000D01*
X326548Y254952D01*
X326361Y254500D01*
Y223500D01*
X326548Y223048D01*
X326861Y222500D01*
Y210500D01*
X327048Y210048D01*
X327500Y209861D01*
X342000D01*
X342452Y210048D01*
X342639Y210500D01*
Y216361D01*
X343804D01*
X344010Y215861D01*
X343861Y215500D01*
Y208444D01*
X343361Y208156D01*
X342987Y208371D01*
X342111Y208606D01*
X341204D01*
X340328Y208371D01*
X339542Y207918D01*
X338901Y207277D01*
X338447Y206491D01*
X338213Y205615D01*
Y204708D01*
X338447Y203832D01*
X338901Y203046D01*
X339542Y202405D01*
X340328Y201951D01*
X341204Y201716D01*
X342111D01*
X342987Y201951D01*
X343439Y202212D01*
X344048Y202048D01*
X344500Y201861D01*
X347563D01*
X347690Y201913D01*
X357996D01*
Y203068D01*
X358496Y203202D01*
X358586Y203046D01*
X359227Y202405D01*
X360013Y201951D01*
X360889Y201716D01*
X361796D01*
X362672Y201951D01*
X363458Y202405D01*
X364099Y203046D01*
X364553Y203832D01*
X364787Y204708D01*
Y205615D01*
X364553Y206491D01*
X364099Y207277D01*
X363458Y207918D01*
X362672Y208371D01*
X361796Y208606D01*
X360889D01*
X360013Y208371D01*
X359227Y207918D01*
X358586Y207277D01*
X358496Y207121D01*
X357996Y207255D01*
Y208410D01*
X357671D01*
Y209488D01*
X357727Y209511D01*
X358336Y210120D01*
X358665Y210916D01*
Y211777D01*
X358336Y212573D01*
X357727Y213182D01*
X356931Y213512D01*
X356747Y214012D01*
X357172Y214437D01*
X357502Y215233D01*
Y216094D01*
X357172Y216890D01*
X356942Y217120D01*
Y218048D01*
X358890D01*
Y220553D01*
X359352Y220744D01*
X362861Y217235D01*
Y216170D01*
X362617Y215582D01*
Y214720D01*
X362861Y214132D01*
Y212500D01*
X363048Y212048D01*
X363500Y211861D01*
X368000D01*
X368452Y212048D01*
X368639Y212500D01*
Y222361D01*
X370000D01*
X370452Y222548D01*
X370639Y223000D01*
Y236000D01*
X370798Y236238D01*
X371026Y236372D01*
X371452Y236548D01*
X374265Y239361D01*
X375210D01*
X375479Y238861D01*
X375231Y238261D01*
Y237400D01*
X375448Y236874D01*
X375048Y236474D01*
X374807Y236113D01*
X374723Y235688D01*
X374723Y235688D01*
Y214665D01*
X374723Y214665D01*
X374807Y214240D01*
X375048Y213879D01*
X378367Y210560D01*
X378367Y210560D01*
X378728Y210319D01*
X379153Y210234D01*
X379154Y210234D01*
X379882D01*
Y208787D01*
X384213D01*
Y213906D01*
X379882D01*
Y212898D01*
X379382Y212691D01*
X376947Y215126D01*
Y230338D01*
X377447Y230593D01*
X378069Y230335D01*
X378931D01*
X379727Y230664D01*
X380336Y231273D01*
X380388Y231400D01*
X380888Y231300D01*
Y222905D01*
X379882D01*
Y217787D01*
X384213D01*
Y222905D01*
X383112D01*
Y231886D01*
X383433Y232207D01*
X385598D01*
X385598Y232207D01*
X385706Y232228D01*
X387461D01*
Y228095D01*
X389361D01*
Y224611D01*
X388735Y223986D01*
X386000D01*
X385548Y223798D01*
X385361Y223346D01*
Y218347D01*
X385548Y217895D01*
X385787Y217795D01*
Y217787D01*
X385806D01*
X386000Y217707D01*
X391467D01*
Y212458D01*
X390118D01*
Y213906D01*
X385787D01*
Y208787D01*
X390118D01*
Y210234D01*
X394382D01*
Y208787D01*
X398713D01*
Y213906D01*
X398328D01*
X398121Y214405D01*
X398336Y214620D01*
X398665Y215416D01*
Y216277D01*
X398336Y217073D01*
X398121Y217287D01*
X398328Y217787D01*
X398713D01*
Y222905D01*
X396572D01*
X396473Y223406D01*
X396727Y223511D01*
X397336Y224120D01*
X397665Y224916D01*
Y225570D01*
X398165Y225777D01*
X399361Y224582D01*
Y217846D01*
X399548Y217394D01*
X400000Y217207D01*
X413000D01*
X413452Y217394D01*
X413639Y217846D01*
Y222707D01*
X414335D01*
Y217787D01*
X418665D01*
Y219018D01*
X419159Y219119D01*
X419165Y219119D01*
X419773Y218511D01*
X420569Y218181D01*
X421431D01*
X422227Y218511D01*
X422836Y219120D01*
X423165Y219916D01*
Y220777D01*
X422836Y221573D01*
X422227Y222182D01*
X421431Y222512D01*
X420569D01*
X419773Y222182D01*
X419165Y221574D01*
X419159Y221574D01*
X418665Y221675D01*
Y222707D01*
X419000D01*
X419452Y222895D01*
X419639Y223346D01*
Y233347D01*
X419452Y233799D01*
X419000Y233986D01*
X412500D01*
X412048Y233799D01*
X411954Y233806D01*
X411631Y234333D01*
X411665Y234416D01*
Y235277D01*
X411659Y235292D01*
X411937Y235707D01*
X413500D01*
X413952Y235894D01*
X414139Y236347D01*
Y237205D01*
Y244847D01*
X413952Y245299D01*
X413500Y245486D01*
X408000D01*
X407548Y245299D01*
X406738Y244488D01*
X406413D01*
Y244164D01*
X403235Y240986D01*
X395728D01*
Y243057D01*
X398971Y246300D01*
X399484D01*
X399773Y246011D01*
X400569Y245681D01*
X401431D01*
X402227Y246011D01*
X402836Y246620D01*
X403165Y247416D01*
Y248277D01*
X402836Y249073D01*
X402227Y249682D01*
X401431Y250012D01*
X400569D01*
X399773Y249682D01*
X399164Y249073D01*
X398946Y248547D01*
X398534D01*
X398108Y248462D01*
X397747Y248221D01*
X397747Y248221D01*
X394156Y244630D01*
X392256D01*
X392187Y245130D01*
X393239Y246181D01*
X393431D01*
X394227Y246511D01*
X394836Y247120D01*
X395165Y247916D01*
Y248108D01*
X399265Y252207D01*
X423500D01*
X423952Y252395D01*
X424139Y252847D01*
Y276346D01*
X423952Y276799D01*
X423500Y276986D01*
D02*
G37*
G36*
X404618Y213906D02*
X400287D01*
Y208787D01*
X404618D01*
Y210234D01*
X406072D01*
X406087Y210197D01*
X406697Y209588D01*
X407492Y209258D01*
X408354D01*
X409150Y209588D01*
X409759Y210197D01*
X410089Y210993D01*
Y211854D01*
X409759Y212650D01*
X409150Y213259D01*
X408354Y213589D01*
X407492D01*
X406697Y213259D01*
X406087Y212650D01*
X406008Y212458D01*
X404618D01*
Y213906D01*
D02*
G37*
G36*
X280953Y206953D02*
X275047D01*
Y201047D01*
X280953D01*
Y206953D01*
D02*
G37*
G36*
X384431Y206665D02*
X383569D01*
X382773Y206336D01*
X382164Y205727D01*
X381835Y204931D01*
Y204069D01*
X382164Y203273D01*
X382312Y203126D01*
X382105Y202626D01*
X381835D01*
Y199083D01*
X386165D01*
Y202626D01*
X385895D01*
X385688Y203126D01*
X385836Y203273D01*
X386165Y204069D01*
Y204931D01*
X385836Y205727D01*
X385227Y206336D01*
X384431Y206665D01*
D02*
G37*
G36*
X372931D02*
X372069D01*
X371273Y206336D01*
X370664Y205727D01*
X370335Y204931D01*
Y204069D01*
X370664Y203273D01*
X370812Y203126D01*
X370605Y202626D01*
X370335D01*
Y199083D01*
X374665D01*
Y202626D01*
X374395D01*
X374188Y203126D01*
X374336Y203273D01*
X374665Y204069D01*
Y204931D01*
X374336Y205727D01*
X373727Y206336D01*
X372931Y206665D01*
D02*
G37*
G36*
X278389Y199079D02*
X277611D01*
X276860Y198878D01*
X276187Y198489D01*
X275637Y197939D01*
X275249Y197266D01*
X275047Y196515D01*
Y195737D01*
X275249Y194986D01*
X275637Y194313D01*
X276187Y193763D01*
X276860Y193375D01*
X277611Y193173D01*
X278389D01*
X279140Y193375D01*
X279813Y193763D01*
X280363Y194313D01*
X280751Y194986D01*
X280953Y195737D01*
Y196515D01*
X280751Y197266D01*
X280363Y197939D01*
X279813Y198489D01*
X279140Y198878D01*
X278389Y199079D01*
D02*
G37*
G36*
X316492Y200087D02*
X315508D01*
X314556Y199832D01*
X313703Y199339D01*
X313007Y198643D01*
X312515Y197790D01*
X312260Y196839D01*
Y195854D01*
X312515Y194903D01*
X313007Y194050D01*
X313703Y193354D01*
X314556Y192861D01*
X315508Y192606D01*
X316492D01*
X317444Y192861D01*
X318297Y193354D01*
X318993Y194050D01*
X319485Y194903D01*
X319740Y195854D01*
Y196839D01*
X319485Y197790D01*
X318993Y198643D01*
X318297Y199339D01*
X317444Y199832D01*
X316492Y200087D01*
D02*
G37*
G36*
X306492D02*
X305508D01*
X304556Y199832D01*
X303703Y199339D01*
X303007Y198643D01*
X302515Y197790D01*
X302260Y196839D01*
Y195854D01*
X302515Y194903D01*
X303007Y194050D01*
X303703Y193354D01*
X304556Y192861D01*
X305508Y192606D01*
X306492D01*
X307444Y192861D01*
X308296Y193354D01*
X308993Y194050D01*
X309485Y194903D01*
X309740Y195854D01*
Y196839D01*
X309485Y197790D01*
X308993Y198643D01*
X308296Y199339D01*
X307444Y199832D01*
X306492Y200087D01*
D02*
G37*
G36*
X296492D02*
X295508D01*
X294556Y199832D01*
X293704Y199339D01*
X293007Y198643D01*
X292515Y197790D01*
X292260Y196839D01*
Y195854D01*
X292515Y194903D01*
X293007Y194050D01*
X293704Y193354D01*
X294556Y192861D01*
X295508Y192606D01*
X296492D01*
X297444Y192861D01*
X298296Y193354D01*
X298993Y194050D01*
X299485Y194903D01*
X299740Y195854D01*
Y196839D01*
X299485Y197790D01*
X298993Y198643D01*
X298296Y199339D01*
X297444Y199832D01*
X296492Y200087D01*
D02*
G37*
G36*
X327575Y200129D02*
X324425D01*
X323580Y199961D01*
X322864Y199482D01*
X322386Y198766D01*
X322217Y197921D01*
Y194772D01*
X322386Y193927D01*
X322864Y193210D01*
X323580Y192732D01*
X324425Y192564D01*
X327575D01*
X328420Y192732D01*
X329136Y193210D01*
X329614Y193927D01*
X329783Y194772D01*
Y197921D01*
X329614Y198766D01*
X329136Y199482D01*
X328420Y199961D01*
X327575Y200129D01*
D02*
G37*
G36*
X395679Y205736D02*
X394321D01*
X392990Y205471D01*
X391737Y204952D01*
X390608Y204198D01*
X389648Y203238D01*
X388894Y202110D01*
X388375Y200856D01*
X388110Y199525D01*
Y198168D01*
X388375Y196837D01*
X388894Y195583D01*
X389648Y194455D01*
X390608Y193495D01*
X391737Y192741D01*
X392990Y192221D01*
X394321Y191957D01*
X395679D01*
X397010Y192221D01*
X398264Y192741D01*
X399392Y193495D01*
X400352Y194455D01*
X401106Y195583D01*
X401625Y196837D01*
X401890Y198168D01*
Y199525D01*
X401625Y200856D01*
X401106Y202110D01*
X400352Y203238D01*
X399392Y204198D01*
X398264Y204952D01*
X397010Y205471D01*
X395679Y205736D01*
D02*
G37*
G36*
X351106Y198862D02*
X344020D01*
Y190201D01*
X351106D01*
Y198862D01*
D02*
G37*
G36*
X358980Y198862D02*
X351894D01*
Y190201D01*
X358980D01*
Y198862D01*
D02*
G37*
G36*
X365673Y198911D02*
X360555D01*
X360103Y198724D01*
X359916Y198272D01*
Y190791D01*
X360103Y190339D01*
X360555Y190152D01*
X365673D01*
X365767Y190191D01*
X366341Y190267D01*
X366964Y190524D01*
X367498Y190935D01*
X367909Y191469D01*
X368166Y192092D01*
X368242Y192666D01*
X368281Y192760D01*
X368281Y196303D01*
X368242Y196397D01*
X368166Y196971D01*
X367909Y197594D01*
X367498Y198128D01*
X366964Y198538D01*
X366341Y198796D01*
X365767Y198872D01*
X365673Y198911D01*
D02*
G37*
G36*
X342445D02*
X337327D01*
X337233Y198872D01*
X336659Y198796D01*
X336036Y198538D01*
X335502Y198128D01*
X335091Y197594D01*
X334834Y196971D01*
X334758Y196397D01*
X334719Y196303D01*
X334719Y192760D01*
X334758Y192666D01*
X334834Y192092D01*
X335091Y191469D01*
X335502Y190935D01*
X336036Y190524D01*
X336659Y190267D01*
X337233Y190191D01*
X337327Y190152D01*
X342445D01*
X342897Y190339D01*
X343084Y190791D01*
Y198272D01*
X342897Y198724D01*
X342445Y198911D01*
D02*
G37*
G36*
X386165Y196917D02*
X381835D01*
Y193374D01*
X382888D01*
Y192883D01*
X382773Y192836D01*
X382164Y192227D01*
X381835Y191431D01*
Y190569D01*
X382164Y189773D01*
X382773Y189164D01*
X383569Y188835D01*
X384431D01*
X385227Y189164D01*
X385836Y189773D01*
X386165Y190569D01*
Y191431D01*
X385836Y192227D01*
X385227Y192836D01*
X385112Y192883D01*
Y193374D01*
X386165D01*
Y196917D01*
D02*
G37*
G36*
X374665D02*
X370335D01*
Y193374D01*
X371388D01*
Y192883D01*
X371273Y192836D01*
X370664Y192227D01*
X370335Y191431D01*
Y190569D01*
X370664Y189773D01*
X371273Y189164D01*
X372069Y188835D01*
X372931D01*
X373727Y189164D01*
X374336Y189773D01*
X374665Y190569D01*
Y191431D01*
X374336Y192227D01*
X373727Y192836D01*
X373612Y192883D01*
Y193374D01*
X374665D01*
Y196917D01*
D02*
G37*
%LPD*%
G36*
X273000Y309846D02*
X254000D01*
Y327207D01*
X273000D01*
Y309846D01*
D02*
G37*
G36*
X391000Y289347D02*
X320000D01*
Y303847D01*
X391000D01*
Y289347D01*
D02*
G37*
G36*
X405000Y259846D02*
X396500D01*
Y269346D01*
X405000D01*
Y259846D01*
D02*
G37*
G36*
X394500Y272346D02*
Y258846D01*
X392642D01*
Y258890D01*
X385358D01*
Y258846D01*
X358500D01*
Y272847D01*
X394000D01*
X394500Y272346D01*
D02*
G37*
G36*
X385358Y251803D02*
X387530D01*
Y244630D01*
X387461D01*
Y242097D01*
X386999Y241905D01*
X383139Y245765D01*
Y258207D01*
X385358D01*
Y251803D01*
D02*
G37*
G36*
X423500Y252847D02*
X399000D01*
X391500Y245346D01*
Y244630D01*
X391398D01*
Y240347D01*
X390000D01*
Y247346D01*
X396000Y253346D01*
Y258846D01*
X406000D01*
Y276346D01*
X423500D01*
Y252847D01*
D02*
G37*
G36*
X382500Y245500D02*
X387461Y240539D01*
Y239906D01*
X387697D01*
Y238528D01*
X385650D01*
X385612Y238535D01*
X385612Y238535D01*
X381465D01*
X380000Y240000D01*
X374000D01*
X371000Y237000D01*
X362500D01*
Y242000D01*
X365000Y244500D01*
Y248500D01*
X362500Y251000D01*
Y258207D01*
X382500D01*
Y245500D01*
D02*
G37*
G36*
X364361Y248139D02*
Y245361D01*
X361000Y242000D01*
Y238000D01*
X352605D01*
X352452Y238369D01*
X352000Y238557D01*
X346299D01*
Y249444D01*
X352000D01*
X352452Y249631D01*
X352639Y250083D01*
Y254500D01*
X358000D01*
X364361Y248139D01*
D02*
G37*
G36*
X413500Y237205D02*
Y236347D01*
X411062D01*
X410727Y236682D01*
X409931Y237012D01*
X409069D01*
X408273Y236682D01*
X407938Y236347D01*
X401482D01*
X401394Y236405D01*
X400969Y236490D01*
X400968Y236490D01*
X399862D01*
Y236559D01*
X398887D01*
X398779Y236668D01*
X398555Y237059D01*
X398612Y237347D01*
X398527Y237772D01*
X398286Y238133D01*
X397925Y238374D01*
X397500Y238458D01*
X394500D01*
Y239906D01*
X395728D01*
Y240347D01*
X403500D01*
X408000Y244847D01*
X413500D01*
Y237205D01*
D02*
G37*
G36*
X370000Y223000D02*
X360500D01*
Y225500D01*
X352639D01*
Y226395D01*
X352568Y226568D01*
X352532Y226750D01*
X352519Y226769D01*
Y227711D01*
X352532Y227730D01*
X352568Y227913D01*
X352639Y228085D01*
Y236000D01*
X362441D01*
Y235835D01*
X367559D01*
Y236000D01*
X370000D01*
Y223000D01*
D02*
G37*
G36*
X391289Y229178D02*
X391398Y229070D01*
Y228095D01*
X391467D01*
Y218347D01*
X386000D01*
Y223346D01*
X389000D01*
X390000Y224346D01*
Y228997D01*
X390500Y229367D01*
X390610Y229345D01*
X390898Y229402D01*
X391289Y229178D01*
D02*
G37*
G36*
X399862Y234197D02*
Y234197D01*
X399862Y234197D01*
X400300Y234047D01*
X404500Y229847D01*
Y225346D01*
X412500D01*
Y233347D01*
X419000D01*
Y223346D01*
X413000D01*
Y217846D01*
X400000D01*
Y224847D01*
X395750Y229097D01*
Y230366D01*
X395750Y230366D01*
X395728Y230474D01*
Y232819D01*
X395500D01*
Y234197D01*
X399862D01*
X399862Y234197D01*
D02*
G37*
G36*
X359861Y223139D02*
Y223000D01*
X360048Y222548D01*
X360500Y222361D01*
X368000D01*
Y212500D01*
X363500D01*
Y217500D01*
X359000Y222000D01*
X353000D01*
Y224500D01*
X358500D01*
X359861Y223139D01*
D02*
G37*
G36*
X341000Y221500D02*
X341664D01*
X342000Y221361D01*
X348729D01*
X349020Y220936D01*
X349135Y220764D01*
X349228Y220578D01*
X349264Y220566D01*
X349500Y220213D01*
Y219307D01*
X349286Y218986D01*
X349145Y218892D01*
X349109Y218837D01*
X349048Y218812D01*
X348977Y218640D01*
X348873Y218485D01*
X348886Y218421D01*
X348861Y218360D01*
Y217000D01*
X342000D01*
Y210500D01*
X327500D01*
Y222500D01*
X341000D01*
Y221500D01*
D02*
G37*
G36*
X353731Y217120D02*
X353501Y216890D01*
X353171Y216094D01*
Y215233D01*
X353501Y214437D01*
X354110Y213828D01*
X354906Y213498D01*
X355090Y212999D01*
X354664Y212573D01*
X354335Y211777D01*
Y210916D01*
X354664Y210120D01*
X355273Y209511D01*
X355447Y209439D01*
Y208410D01*
X348639D01*
Y210861D01*
X352000D01*
X352452Y211048D01*
X352639Y211500D01*
Y218048D01*
X353731D01*
Y217120D01*
D02*
G37*
G36*
X352000Y250083D02*
X345659D01*
Y237917D01*
X352000D01*
Y228085D01*
X351882Y227908D01*
X351749Y227240D01*
X351882Y226572D01*
X352000Y226395D01*
Y224345D01*
X351882Y224168D01*
X351749Y223500D01*
X351882Y222832D01*
X352000Y222655D01*
Y221472D01*
X351783D01*
Y218048D01*
X352000D01*
Y211500D01*
X348000D01*
Y208410D01*
X347563D01*
Y202500D01*
X344500D01*
Y203195D01*
X344868Y203832D01*
X345102Y204708D01*
Y205615D01*
X344868Y206491D01*
X344500Y207128D01*
Y215500D01*
X349500D01*
Y218360D01*
X349747Y218525D01*
X350125Y219092D01*
X350258Y219760D01*
X350125Y220428D01*
X349747Y220994D01*
X349647Y221061D01*
X349609Y221609D01*
X350000Y222000D01*
X342000D01*
Y223500D01*
X327000D01*
Y254500D01*
X352000D01*
Y250083D01*
D02*
G37*
G36*
X367642Y192760D02*
X365673D01*
Y196303D01*
X367642D01*
X367642Y192760D01*
D02*
G37*
G36*
X365673Y190791D02*
X360555D01*
Y198272D01*
X365673D01*
Y190791D01*
D02*
G37*
G36*
X337327Y192760D02*
X335358D01*
X335358Y196303D01*
X337327D01*
Y192760D01*
D02*
G37*
G36*
X342445Y190791D02*
X337327D01*
Y198272D01*
X342445D01*
Y190791D01*
D02*
G37*
%LPC*%
G36*
X404386Y318345D02*
X403961Y318260D01*
X403600Y318019D01*
X403214Y317633D01*
X402973Y317272D01*
X402888Y316846D01*
X402973Y316421D01*
X403214Y316060D01*
X403575Y315819D01*
X404000Y315735D01*
X404425Y315819D01*
X404786Y316060D01*
X405173Y316447D01*
X405414Y316807D01*
X405498Y317233D01*
X405414Y317658D01*
X405173Y318019D01*
X404812Y318260D01*
X404386Y318345D01*
D02*
G37*
G36*
X431500Y230084D02*
X431074Y230000D01*
X430714Y229759D01*
X430588Y229633D01*
X430347Y229272D01*
X430262Y228847D01*
X430347Y228421D01*
X430588Y228060D01*
X430948Y227819D01*
X431374Y227734D01*
X431800Y227819D01*
X432160Y228060D01*
X432286Y228186D01*
X432527Y228547D01*
X432612Y228972D01*
X432527Y229398D01*
X432286Y229759D01*
X431925Y230000D01*
X431500Y230084D01*
D02*
G37*
%LPD*%
D14*
X384000Y200854D02*
Y204500D01*
X356559Y205221D02*
Y211287D01*
X356500Y211347D02*
X356559Y211287D01*
Y205221D02*
X356618Y205161D01*
X375835Y235688D02*
X377396Y237249D01*
X375835Y214665D02*
Y235688D01*
X377396Y237249D02*
Y237831D01*
X372500Y200854D02*
Y204500D01*
X379153Y211347D02*
X382047D01*
X375835Y214665D02*
X379153Y211347D01*
X377500Y237423D02*
X385612D01*
X381378Y235378D02*
X385689D01*
X378500Y232500D02*
X381378Y235378D01*
X384000Y191000D02*
Y195146D01*
X372500Y191000D02*
Y195146D01*
X385612Y237423D02*
X385689Y237347D01*
X407846Y211347D02*
X408000Y211500D01*
X402453Y211347D02*
X407846D01*
X292500Y265347D02*
X297725D01*
X287000Y270847D02*
X292500Y265347D01*
X392579Y211347D02*
Y230457D01*
X387953Y211347D02*
X392579D01*
X396547D01*
X396500Y215846D02*
Y220299D01*
X396547Y220346D01*
X395500Y225346D02*
Y225928D01*
X394638Y226790D02*
Y230366D01*
Y226790D02*
X395500Y225928D01*
X394547Y230457D02*
X394638Y230366D01*
X298453Y300799D02*
X314161Y316508D01*
X333539D01*
X298453Y294178D02*
Y300799D01*
X426255Y312827D02*
X426377Y312950D01*
Y318724D01*
X426500Y318847D01*
X276275Y280346D02*
X282000D01*
X282500Y324847D02*
Y330828D01*
X416500Y220346D02*
X421000D01*
X409343Y230847D02*
X409500Y231003D01*
Y234846D01*
X392579Y237347D02*
X397500D01*
X391595Y236362D02*
X392579Y237347D01*
X390610Y230457D02*
Y235378D01*
X391595Y236362D01*
X283500Y289846D02*
X285500Y287846D01*
X283500Y289846D02*
Y294178D01*
X285500Y287846D02*
X290500D01*
X410302Y344149D02*
Y349478D01*
X410000Y343847D02*
X410302Y344149D01*
X369500Y323847D02*
Y327847D01*
X421000Y349346D02*
X425171D01*
X425302Y349478D01*
X357446Y333843D02*
X357500Y333789D01*
Y329346D02*
Y333789D01*
X345331Y341520D02*
X345500Y341690D01*
Y346847D01*
X345312Y341520D02*
X345331D01*
X282500Y309528D02*
Y316347D01*
X447657Y347847D02*
X454000D01*
X426127Y334255D02*
Y342219D01*
X426000Y342347D02*
X426127Y342219D01*
Y334255D02*
X426255Y334127D01*
X421378Y318224D02*
X421500Y318347D01*
X421255Y312827D02*
X421378Y312950D01*
Y318224D01*
X287500Y323346D02*
Y330828D01*
X291500Y270346D02*
X297725D01*
X315000Y280299D02*
Y285846D01*
X297725Y275346D02*
X304000D01*
X314953Y274346D02*
X315000Y274394D01*
X309000Y274346D02*
X314953D01*
X398534Y247435D02*
X400589D01*
X401000Y247847D01*
X394547Y242268D02*
Y243449D01*
X398534Y247435D01*
X405500Y230847D02*
X409343D01*
X431374Y228847D02*
X431500Y228972D01*
X397500Y235378D02*
X400969D01*
X405500Y230847D01*
X382972Y233319D02*
X385598D01*
X385689Y233410D01*
X382000Y232347D02*
X382972Y233319D01*
X382000Y220394D02*
Y232347D01*
X392579Y242268D02*
X394547D01*
X388642D02*
Y254988D01*
X389000Y255346D01*
X382000Y220394D02*
X382047Y220346D01*
X314953Y280346D02*
X315000Y280299D01*
X297725Y280346D02*
X314953D01*
X404000Y316846D02*
X404386Y317233D01*
X292500Y294226D02*
X292547Y294178D01*
X292500Y294226D02*
Y309528D01*
X277500Y294273D02*
Y309528D01*
Y294273D02*
X277594Y294178D01*
X416255Y334127D02*
Y349430D01*
X416208Y349478D02*
X416255Y349430D01*
X431255Y334127D02*
Y349430D01*
X431208Y349478D02*
X431255Y349430D01*
D16*
X338311Y192760D02*
G03*
X338311Y192760I-984J0D01*
G01*
Y196303D02*
G03*
X338311Y196303I-984J0D01*
G01*
X366657Y192760D02*
G03*
X366657Y192760I-984J0D01*
G01*
X366657Y196303D02*
G03*
X366657Y196303I-984J0D01*
G01*
X355336Y215664D02*
Y219760D01*
D17*
X358554Y245361D02*
D03*
X370168D02*
D03*
D18*
X391595Y236362D02*
D03*
D19*
X388642Y242268D02*
D03*
X390610D02*
D03*
X392579D02*
D03*
X394547D02*
D03*
Y230457D02*
D03*
X392579D02*
D03*
X390610D02*
D03*
X388642D02*
D03*
D20*
X397500Y239315D02*
D03*
Y237347D02*
D03*
Y235378D02*
D03*
Y233410D02*
D03*
X385689D02*
D03*
Y235378D02*
D03*
Y237347D02*
D03*
Y239315D02*
D03*
D21*
X330902Y244000D02*
D03*
X350000D02*
D03*
D22*
X301157Y218500D02*
D03*
X294843D02*
D03*
X277343Y256846D02*
D03*
X283657D02*
D03*
X277343Y247000D02*
D03*
X283657D02*
D03*
X266157Y294346D02*
D03*
X259843D02*
D03*
X441343Y347847D02*
D03*
X447657D02*
D03*
X409343Y230847D02*
D03*
X415657D02*
D03*
D23*
X299500Y230000D02*
D03*
Y236314D02*
D03*
X264500Y276690D02*
D03*
Y283003D02*
D03*
X401000Y255533D02*
D03*
Y261846D02*
D03*
X305000Y330678D02*
D03*
Y324364D02*
D03*
X404000Y310532D02*
D03*
Y316846D02*
D03*
X269000Y342190D02*
D03*
Y348503D02*
D03*
Y330678D02*
D03*
Y324364D02*
D03*
Y306364D02*
D03*
Y312678D02*
D03*
X440755Y337291D02*
D03*
Y330978D02*
D03*
Y301478D02*
D03*
Y295164D02*
D03*
Y312821D02*
D03*
Y319134D02*
D03*
D24*
X292457Y247000D02*
D03*
X299543D02*
D03*
X409957Y240846D02*
D03*
X417043D02*
D03*
D25*
X346382Y205161D02*
D03*
X348941D02*
D03*
X351500D02*
D03*
X354059D02*
D03*
X356618D02*
D03*
D26*
X347563Y194532D02*
D03*
X355437Y194532D02*
D03*
D27*
X346671Y219760D02*
D03*
Y223500D02*
D03*
Y227240D02*
D03*
X355336Y227240D02*
D03*
Y223500D02*
D03*
D28*
Y219760D02*
D03*
D29*
X330951Y227043D02*
D03*
Y219957D02*
D03*
X366000Y254957D02*
D03*
Y262043D02*
D03*
X419000Y196957D02*
D03*
Y204043D02*
D03*
X334500Y307390D02*
D03*
Y300303D02*
D03*
X355500Y307390D02*
D03*
Y300303D02*
D03*
X345000Y307390D02*
D03*
Y300303D02*
D03*
X324000Y307390D02*
D03*
Y300303D02*
D03*
X387000Y307390D02*
D03*
Y300303D02*
D03*
X376500Y307390D02*
D03*
Y300303D02*
D03*
X366000Y307390D02*
D03*
Y300303D02*
D03*
X264500Y265390D02*
D03*
Y258303D02*
D03*
X389000Y262433D02*
D03*
Y255346D02*
D03*
X258000Y349390D02*
D03*
Y342303D02*
D03*
X258000Y324303D02*
D03*
Y331390D02*
D03*
Y312890D02*
D03*
Y305803D02*
D03*
X451500Y330260D02*
D03*
Y337347D02*
D03*
X377500Y262043D02*
D03*
Y254957D02*
D03*
X451500Y301390D02*
D03*
Y294303D02*
D03*
Y312303D02*
D03*
Y319390D02*
D03*
D30*
X260386Y228000D02*
D03*
D31*
X283614Y237055D02*
D03*
Y228000D02*
D03*
Y218945D02*
D03*
D32*
X364951Y220047D02*
D03*
Y225953D02*
D03*
X365000Y232095D02*
D03*
Y238000D02*
D03*
X315000Y280299D02*
D03*
Y274394D02*
D03*
D33*
X297725Y280346D02*
D03*
Y275346D02*
D03*
Y270346D02*
D03*
Y265347D02*
D03*
X276275D02*
D03*
X276275Y270346D02*
D03*
X276275Y275346D02*
D03*
Y280346D02*
D03*
D34*
X384000Y195146D02*
D03*
Y200854D02*
D03*
X372500Y200854D02*
D03*
Y195146D02*
D03*
D35*
X384000Y436346D02*
D03*
Y452347D02*
D03*
D36*
X387953Y211347D02*
D03*
X382047D02*
D03*
X402453D02*
D03*
X396547D02*
D03*
Y220346D02*
D03*
X402453D02*
D03*
X410595D02*
D03*
X416500D02*
D03*
X382047D02*
D03*
X387953D02*
D03*
X283500Y294178D02*
D03*
X277594D02*
D03*
X425302Y349478D02*
D03*
X431208D02*
D03*
X416208D02*
D03*
X410302D02*
D03*
X292547Y294178D02*
D03*
X298453D02*
D03*
D37*
X416153Y301847D02*
D03*
X422847D02*
D03*
X292347Y342846D02*
D03*
X285653D02*
D03*
D38*
X356759Y434437D02*
D03*
Y453256D02*
D03*
D39*
X325460Y443847D02*
D03*
D40*
X416255Y312827D02*
D03*
X421255D02*
D03*
X426255D02*
D03*
X431255D02*
D03*
Y334127D02*
D03*
X426255D02*
D03*
X421255D02*
D03*
X416255D02*
D03*
X292500Y330828D02*
D03*
X287500Y330828D02*
D03*
X282500D02*
D03*
X277500Y330828D02*
D03*
Y309528D02*
D03*
X282500Y309528D02*
D03*
X287500D02*
D03*
X292500Y309528D02*
D03*
D41*
X369500Y323847D02*
D03*
Y321287D02*
D03*
Y318728D02*
D03*
Y316169D02*
D03*
X333539Y316508D02*
D03*
Y319067D02*
D03*
Y321626D02*
D03*
Y324185D02*
D03*
X345312Y341520D02*
D03*
Y338961D02*
D03*
Y336402D02*
D03*
Y333843D02*
D03*
X357446D02*
D03*
Y336402D02*
D03*
Y338961D02*
D03*
Y341520D02*
D03*
D42*
X357394Y316169D02*
D03*
Y318728D02*
D03*
Y321287D02*
D03*
Y323847D02*
D03*
X345646Y324185D02*
D03*
Y321626D02*
D03*
Y319067D02*
D03*
Y316508D02*
D03*
X333206Y333843D02*
D03*
Y336402D02*
D03*
Y338961D02*
D03*
Y341520D02*
D03*
X369552D02*
D03*
Y338961D02*
D03*
Y336402D02*
D03*
Y333843D02*
D03*
D43*
X362039Y320008D02*
D03*
X341000Y320346D02*
D03*
X337852Y337682D02*
D03*
X364907D02*
D03*
D44*
X443450Y264347D02*
D03*
X416550D02*
D03*
D45*
X361343Y205161D02*
D03*
X341657Y205161D02*
D03*
D46*
X278000Y204000D02*
D03*
X431354Y203909D02*
D03*
X431500Y228972D02*
D03*
D47*
X278000Y196126D02*
D03*
X431354Y211784D02*
D03*
X431500Y236846D02*
D03*
D48*
X316000Y196346D02*
D03*
X306000D02*
D03*
X296000D02*
D03*
D49*
X326000D02*
D03*
D50*
X395000Y198846D02*
D03*
X388000Y514847D02*
D03*
X321000D02*
D03*
D51*
X426500Y514347D02*
D03*
X280000D02*
D03*
D52*
X426011Y481812D02*
D03*
X280711Y481812D02*
D03*
D53*
X426011Y373544D02*
D03*
X280711Y373544D02*
D03*
D54*
X386500Y357846D02*
D03*
X319000D02*
D03*
X386500Y413846D02*
D03*
X318500D02*
D03*
D55*
X384000Y204500D02*
D03*
X372500Y218500D02*
D03*
X364782Y215151D02*
D03*
X355500Y251500D02*
D03*
X355336Y215664D02*
D03*
X356500Y211347D02*
D03*
X305000Y224500D02*
D03*
X377396Y237831D02*
D03*
X372500Y204500D02*
D03*
X378500Y232500D02*
D03*
X384000Y191000D02*
D03*
X372500D02*
D03*
X272500Y225500D02*
D03*
X288500Y214000D02*
D03*
X307500Y237500D02*
D03*
Y246500D02*
D03*
X339000Y213000D02*
D03*
X331000D02*
D03*
X419000Y191000D02*
D03*
X407923Y211423D02*
D03*
X287000Y270847D02*
D03*
X396500Y215846D02*
D03*
X395500Y225346D02*
D03*
X282500Y324847D02*
D03*
X426500Y318847D02*
D03*
X282000Y280346D02*
D03*
X387000Y293847D02*
D03*
X376500D02*
D03*
X366000D02*
D03*
X355500D02*
D03*
X345000D02*
D03*
X334500D02*
D03*
X324000D02*
D03*
X421000Y220346D02*
D03*
X409500Y234846D02*
D03*
X404110Y238480D02*
D03*
X271500Y254346D02*
D03*
Y259347D02*
D03*
X255000Y294346D02*
D03*
Y288846D02*
D03*
Y283347D02*
D03*
X366000Y457346D02*
D03*
X366500Y452846D02*
D03*
X363000Y460847D02*
D03*
X359500Y463846D02*
D03*
X354500D02*
D03*
X420500Y452846D02*
D03*
X426000D02*
D03*
X431500D02*
D03*
Y448347D02*
D03*
X426000D02*
D03*
X420500D02*
D03*
Y443347D02*
D03*
X426000D02*
D03*
X431500D02*
D03*
X285500Y443847D02*
D03*
X280000D02*
D03*
X274500D02*
D03*
Y448846D02*
D03*
X280000D02*
D03*
X285500D02*
D03*
Y453346D02*
D03*
X280000D02*
D03*
X274500D02*
D03*
X410000Y343847D02*
D03*
X369500Y327847D02*
D03*
X421000Y349346D02*
D03*
X357500Y329346D02*
D03*
X345500Y346847D02*
D03*
X290500Y287846D02*
D03*
X282500Y316347D02*
D03*
X454000Y347847D02*
D03*
X426000Y342347D02*
D03*
X349500Y334347D02*
D03*
X353500Y334399D02*
D03*
Y340846D02*
D03*
X349500D02*
D03*
X440053Y289347D02*
D03*
X446500D02*
D03*
X452948D02*
D03*
X440053Y324847D02*
D03*
X446500D02*
D03*
X452948D02*
D03*
X256553Y354346D02*
D03*
X263000D02*
D03*
X269447D02*
D03*
X270447Y318347D02*
D03*
X264000D02*
D03*
X257553D02*
D03*
X391000Y270346D02*
D03*
X383100D02*
D03*
X375200D02*
D03*
X367300D02*
D03*
X421500Y318347D02*
D03*
X287500Y323346D02*
D03*
X291500Y270346D02*
D03*
X315000Y285846D02*
D03*
X304000Y275346D02*
D03*
X309000Y274346D02*
D03*
X401000Y266846D02*
D03*
Y247847D02*
D03*
X393000Y248346D02*
D03*
D56*
X419000Y191000D02*
Y196957D01*
D57*
X385747Y414600D02*
X386500Y413846D01*
M02*
