G04*
G04 #@! TF.GenerationSoftware,Altium Limited,Altium Designer,24.6.1 (21)*
G04*
G04 Layer_Color=32896*
%FSLAX25Y25*%
%MOIN*%
G70*
G04*
G04 #@! TF.SameCoordinates,3E969972-8C0A-4DBC-9D31-E8772DB7AAD8*
G04*
G04*
G04 #@! TF.FilePolarity,Positive*
G04*
G01*
G75*
%ADD11C,0.00787*%
%ADD14C,0.01000*%
%ADD60C,0.00394*%
D11*
X274496Y419972D02*
Y435720D01*
X286504Y419973D02*
Y435720D01*
X432004Y419973D02*
Y435720D01*
X419996Y419973D02*
Y435720D01*
D14*
X385968Y224126D02*
X382032D01*
Y222158D01*
X382688Y221502D01*
X384000D01*
X384656Y222158D01*
Y224126D01*
Y222814D02*
X385968Y221502D01*
X382032Y220191D02*
Y217567D01*
X382688D01*
X385312Y220191D01*
X385968D01*
X365532Y207080D02*
X369468D01*
Y209048D01*
X368812Y209704D01*
X367500D01*
X366844Y209048D01*
Y207080D01*
Y208392D02*
X365532Y209704D01*
Y211016D02*
Y212328D01*
Y211672D01*
X369468D01*
X368812Y211016D01*
Y214296D02*
X369468Y214952D01*
Y216264D01*
X368812Y216920D01*
X368156D01*
X367500Y216264D01*
Y215608D01*
Y216264D01*
X366844Y216920D01*
X366188D01*
X365532Y216264D01*
Y214952D01*
X366188Y214296D01*
X372312Y247686D02*
X372968Y247030D01*
Y245718D01*
X372312Y245062D01*
X369688D01*
X369032Y245718D01*
Y247030D01*
X369688Y247686D01*
X372312Y248998D02*
X372968Y249654D01*
Y250965D01*
X372312Y251621D01*
X371656D01*
X371000Y250965D01*
Y250309D01*
Y250965D01*
X370344Y251621D01*
X369688D01*
X369032Y250965D01*
Y249654D01*
X369688Y248998D01*
X369032Y252933D02*
Y254245D01*
Y253589D01*
X372968D01*
X372312Y252933D01*
X252532Y194580D02*
X256468D01*
Y196548D01*
X255812Y197204D01*
X254500D01*
X253844Y196548D01*
Y194580D01*
Y195892D02*
X252532Y197204D01*
Y198516D02*
Y199828D01*
Y199172D01*
X256468D01*
X255812Y198516D01*
Y201796D02*
X256468Y202452D01*
Y203764D01*
X255812Y204420D01*
X253188D01*
X252532Y203764D01*
Y202452D01*
X253188Y201796D01*
X255812D01*
X445968Y203067D02*
X442032D01*
Y205034D01*
X442688Y205691D01*
X445312D01*
X445968Y205034D01*
Y203067D01*
X445312Y207002D02*
X445968Y207658D01*
Y208970D01*
X445312Y209626D01*
X444656D01*
X444000Y208970D01*
X443344Y209626D01*
X442688D01*
X442032Y208970D01*
Y207658D01*
X442688Y207002D01*
X443344D01*
X444000Y207658D01*
X444656Y207002D01*
X445312D01*
X444000Y207658D02*
Y208970D01*
X272500Y215336D02*
Y211400D01*
X270532D01*
X269876Y212056D01*
Y214680D01*
X270532Y215336D01*
X272500D01*
X265940D02*
X267252Y214680D01*
X268564Y213368D01*
Y212056D01*
X267908Y211400D01*
X266596D01*
X265940Y212056D01*
Y212712D01*
X266596Y213368D01*
X268564D01*
X435220Y243879D02*
Y247814D01*
X437188D01*
X437844Y247158D01*
Y244534D01*
X437188Y243879D01*
X435220D01*
X441780D02*
X439156D01*
Y245846D01*
X440468Y245191D01*
X441124D01*
X441780Y245846D01*
Y247158D01*
X441124Y247814D01*
X439812D01*
X439156Y247158D01*
X432000Y444946D02*
Y448882D01*
X430032D01*
X429376Y448226D01*
Y446914D01*
X430032Y446258D01*
X432000D01*
X430688D02*
X429376Y444946D01*
X425440D02*
X428064D01*
X425440Y447570D01*
Y448226D01*
X426096Y448882D01*
X427408D01*
X428064Y448226D01*
X295124Y420379D02*
Y424314D01*
X293156D01*
X292500Y423658D01*
Y422346D01*
X293156Y421691D01*
X295124D01*
X293812D02*
X292500Y420379D01*
X291188D02*
X289876D01*
X290532D01*
Y424314D01*
X291188Y423658D01*
D60*
X273264Y203847D02*
G03*
X273264Y203847I-197J0D01*
G01*
X440264Y203693D02*
G03*
X440264Y203693I-197J0D01*
G01*
Y236693D02*
G03*
X440264Y236693I-197J0D01*
G01*
M02*
