G04*
G04 #@! TF.GenerationSoftware,Altium Limited,Altium Designer,24.6.1 (21)*
G04*
G04 Layer_Color=2752767*
%FSLAX25Y25*%
%MOIN*%
G70*
G04*
G04 #@! TF.SameCoordinates,3E969972-8C0A-4DBC-9D31-E8772DB7AAD8*
G04*
G04*
G04 #@! TF.FilePolarity,Positive*
G04*
G01*
G75*
%ADD65C,0.00500*%
%ADD66C,0.00667*%
D65*
X359343Y203161D02*
Y207161D01*
X363342D01*
Y203161D01*
X359343D01*
X339657Y203161D02*
Y207161D01*
X343657D01*
Y203161D01*
X339657D01*
X277000Y203000D02*
Y202000D01*
X279000D01*
Y203000D01*
X280000D01*
Y205000D01*
X279000D01*
Y206000D01*
X277000D01*
Y205000D01*
X276000D01*
Y203000D01*
X277000D01*
Y195126D02*
Y194126D01*
X279000D01*
Y195126D01*
X280000D01*
Y197126D01*
X279000D01*
Y198126D01*
X277000D01*
Y197126D01*
X276000D01*
Y195126D01*
X277000D01*
X316000Y194346D02*
X314000Y198346D01*
X318000D01*
X316000Y194346D01*
X326000D02*
X324000Y198346D01*
X328000D01*
X326000Y194346D01*
X306000D02*
X304000Y198346D01*
X308000D01*
X306000Y194346D01*
X296000D02*
X294000Y198346D01*
X298000D01*
X296000Y194346D01*
X393000Y198846D02*
X395000Y200847D01*
X397000Y198846D01*
X395000Y196846D01*
X393000Y198846D01*
X386000Y514847D02*
X388000Y516847D01*
X390000Y514847D01*
X388000Y512847D01*
X386000Y514847D01*
X319000D02*
X321000Y516847D01*
X323000Y514847D01*
X321000Y512847D01*
X319000Y514847D01*
X424500Y512347D02*
X425500D01*
X426500Y513346D01*
X427500Y512347D01*
X428500D01*
Y513346D01*
X427500Y514347D01*
X428500Y515346D01*
Y516347D01*
X427500D01*
X426500Y515346D01*
X425500Y516347D01*
X424500D01*
Y515346D01*
X425500Y514347D01*
X424500Y513346D01*
Y512347D01*
X278000D02*
X279000D01*
X280000Y513346D01*
X281000Y512347D01*
X282000D01*
Y513346D01*
X281000Y514347D01*
X282000Y515346D01*
Y516347D01*
X281000D01*
X280000Y515346D01*
X279000Y516347D01*
X278000D01*
Y515346D01*
X279000Y514347D01*
X278000Y513346D01*
Y512347D01*
X430354Y210784D02*
Y209784D01*
X432354D01*
Y210784D01*
X433354D01*
Y212784D01*
X432354D01*
Y213784D01*
X430354D01*
Y212784D01*
X429354D01*
Y210784D01*
X430354D01*
Y202909D02*
Y201909D01*
X432354D01*
Y202909D01*
X433354D01*
Y204909D01*
X432354D01*
Y205909D01*
X430354D01*
Y204909D01*
X429354D01*
Y202909D01*
X430354D01*
X430500Y235846D02*
Y234846D01*
X432500D01*
Y235846D01*
X433500D01*
Y237846D01*
X432500D01*
Y238846D01*
X430500D01*
Y237846D01*
X429500D01*
Y235846D01*
X430500D01*
Y227972D02*
Y226972D01*
X432500D01*
Y227972D01*
X433500D01*
Y229972D01*
X432500D01*
Y230972D01*
X430500D01*
Y229972D01*
X429500D01*
Y227972D01*
X430500D01*
X424011Y479812D02*
X425011Y481812D01*
X424011Y483812D01*
X426011Y482812D01*
X428011Y483812D01*
X427011Y481812D01*
X428011Y479812D01*
X426011Y480812D01*
X424011Y479812D01*
Y371544D02*
X425011Y373544D01*
X424011Y375544D01*
X426011Y374544D01*
X428011Y375544D01*
X427011Y373544D01*
X428011Y371544D01*
X426011Y372544D01*
X424011Y371544D01*
X278711Y479812D02*
X279711Y481812D01*
X278711Y483812D01*
X280711Y482812D01*
X282711Y483812D01*
X281711Y481812D01*
X282711Y479812D01*
X280711Y480812D01*
X278711Y479812D01*
X278711Y371544D02*
X279711Y373544D01*
X278711Y375544D01*
X280711Y374544D01*
X282711Y375544D01*
X281711Y373544D01*
X282711Y371544D01*
X280711Y372544D01*
X278711Y371544D01*
X386500Y355847D02*
X387500Y356846D01*
X388500D01*
X387500Y357846D01*
X388500Y358846D01*
X387500D01*
X386500Y359846D01*
X385500Y358846D01*
X384500D01*
X385500Y357846D01*
X384500Y356846D01*
X385500D01*
X386500Y355847D01*
X319000D02*
X320000Y356846D01*
X321000D01*
X320000Y357846D01*
X321000Y358846D01*
X320000D01*
X319000Y359846D01*
X318000Y358846D01*
X317000D01*
X318000Y357846D01*
X317000Y356846D01*
X318000D01*
X319000Y355847D01*
X386500Y411846D02*
X387500Y412847D01*
X388500D01*
X387500Y413846D01*
X388500Y414847D01*
X387500D01*
X386500Y415846D01*
X385500Y414847D01*
X384500D01*
X385500Y413846D01*
X384500Y412847D01*
X385500D01*
X386500Y411846D01*
X318500D02*
X319500Y412847D01*
X320500D01*
X319500Y413846D01*
X320500Y414847D01*
X319500D01*
X318500Y415846D01*
X317500Y414847D01*
X316500D01*
X317500Y413846D01*
X316500Y412847D01*
X317500D01*
X318500Y411846D01*
X382000Y202500D02*
Y206500D01*
X386000D01*
Y202500D01*
X382000D01*
X382800Y203300D02*
Y205700D01*
X385200D01*
Y203300D01*
X382800D01*
X370500Y216500D02*
Y220500D01*
X374500D01*
Y216500D01*
X370500D01*
X371300Y217300D02*
Y219700D01*
X373700D01*
Y217300D01*
X371300D01*
X362782Y213151D02*
Y217151D01*
X366782D01*
Y213151D01*
X362782D01*
X363582Y213951D02*
Y216351D01*
X365982D01*
Y213951D01*
X363582D01*
X353500Y249500D02*
Y253500D01*
X357500D01*
Y249500D01*
X353500D01*
X354300Y250300D02*
Y252700D01*
X356700D01*
Y250300D01*
X354300D01*
X353336Y213664D02*
Y217664D01*
X357336D01*
Y213664D01*
X353336D01*
X354136Y214464D02*
Y216864D01*
X356536D01*
Y214464D01*
X354136D01*
X354500Y209347D02*
Y213347D01*
X358500D01*
Y209347D01*
X354500D01*
X355300Y210146D02*
Y212546D01*
X357700D01*
Y210146D01*
X355300D01*
X303000Y222500D02*
Y226500D01*
X307000D01*
Y222500D01*
X303000D01*
X303800Y223300D02*
Y225700D01*
X306200D01*
Y223300D01*
X303800D01*
X375396Y235831D02*
Y239831D01*
X379396D01*
Y235831D01*
X375396D01*
X376196Y236631D02*
Y239031D01*
X378596D01*
Y236631D01*
X376196D01*
X370500Y202500D02*
Y206500D01*
X374500D01*
Y202500D01*
X370500D01*
X371300Y203300D02*
Y205700D01*
X373700D01*
Y203300D01*
X371300D01*
X376500Y230500D02*
Y234500D01*
X380500D01*
Y230500D01*
X376500D01*
X377300Y231300D02*
Y233700D01*
X379700D01*
Y231300D01*
X377300D01*
X382000Y189000D02*
Y193000D01*
X386000D01*
Y189000D01*
X382000D01*
X382800Y189800D02*
Y192200D01*
X385200D01*
Y189800D01*
X382800D01*
X370500Y189000D02*
Y193000D01*
X374500D01*
Y189000D01*
X370500D01*
X371300Y189800D02*
Y192200D01*
X373700D01*
Y189800D01*
X371300D01*
X270500Y223500D02*
Y227500D01*
X274500D01*
Y223500D01*
X270500D01*
X271300Y224300D02*
Y226700D01*
X273700D01*
Y224300D01*
X271300D01*
X286500Y212000D02*
Y216000D01*
X290500D01*
Y212000D01*
X286500D01*
X287300Y212800D02*
Y215200D01*
X289700D01*
Y212800D01*
X287300D01*
X305500Y235500D02*
Y239500D01*
X309500D01*
Y235500D01*
X305500D01*
X306300Y236300D02*
Y238700D01*
X308700D01*
Y236300D01*
X306300D01*
X305500Y244500D02*
Y248500D01*
X309500D01*
Y244500D01*
X305500D01*
X306300Y245300D02*
Y247700D01*
X308700D01*
Y245300D01*
X306300D01*
X337000Y211000D02*
Y215000D01*
X341000D01*
Y211000D01*
X337000D01*
X337800Y211800D02*
Y214200D01*
X340200D01*
Y211800D01*
X337800D01*
X329000Y211000D02*
Y215000D01*
X333000D01*
Y211000D01*
X329000D01*
X329800Y211800D02*
Y214200D01*
X332200D01*
Y211800D01*
X329800D01*
X417000Y189000D02*
Y193000D01*
X421000D01*
Y189000D01*
X417000D01*
X417800Y189800D02*
Y192200D01*
X420200D01*
Y189800D01*
X417800D01*
X405923Y209423D02*
Y213423D01*
X409923D01*
Y209423D01*
X405923D01*
X406723Y210223D02*
Y212623D01*
X409123D01*
Y210223D01*
X406723D01*
X285000Y268847D02*
Y272847D01*
X289000D01*
Y268847D01*
X285000D01*
X285800Y269647D02*
Y272046D01*
X288200D01*
Y269647D01*
X285800D01*
X394500Y213846D02*
Y217846D01*
X398500D01*
Y213846D01*
X394500D01*
X395300Y214647D02*
Y217046D01*
X397700D01*
Y214647D01*
X395300D01*
X393500Y223346D02*
Y227346D01*
X397500D01*
Y223346D01*
X393500D01*
X394300Y224147D02*
Y226547D01*
X396700D01*
Y224147D01*
X394300D01*
X280500Y322847D02*
Y326847D01*
X284500D01*
Y322847D01*
X280500D01*
X281300Y323646D02*
Y326046D01*
X283700D01*
Y323646D01*
X281300D01*
X424500Y316846D02*
Y320847D01*
X428500D01*
Y316846D01*
X424500D01*
X425300Y317647D02*
Y320046D01*
X427700D01*
Y317647D01*
X425300D01*
X280000Y278346D02*
Y282347D01*
X284000D01*
Y278346D01*
X280000D01*
X280800Y279147D02*
Y281546D01*
X283200D01*
Y279147D01*
X280800D01*
X385000Y291846D02*
Y295847D01*
X389000D01*
Y291846D01*
X385000D01*
X385800Y292647D02*
Y295046D01*
X388200D01*
Y292647D01*
X385800D01*
X374500Y291846D02*
Y295847D01*
X378500D01*
Y291846D01*
X374500D01*
X375300Y292647D02*
Y295046D01*
X377700D01*
Y292647D01*
X375300D01*
X364000Y291846D02*
Y295847D01*
X368000D01*
Y291846D01*
X364000D01*
X364800Y292647D02*
Y295046D01*
X367200D01*
Y292647D01*
X364800D01*
X353500Y291846D02*
Y295847D01*
X357500D01*
Y291846D01*
X353500D01*
X354300Y292647D02*
Y295046D01*
X356700D01*
Y292647D01*
X354300D01*
X343000Y291846D02*
Y295847D01*
X347000D01*
Y291846D01*
X343000D01*
X343800Y292647D02*
Y295046D01*
X346200D01*
Y292647D01*
X343800D01*
X332500Y291846D02*
Y295847D01*
X336500D01*
Y291846D01*
X332500D01*
X333300Y292647D02*
Y295046D01*
X335700D01*
Y292647D01*
X333300D01*
X322000Y291846D02*
Y295847D01*
X326000D01*
Y291846D01*
X322000D01*
X322800Y292647D02*
Y295046D01*
X325200D01*
Y292647D01*
X322800D01*
X419000Y218347D02*
Y222346D01*
X423000D01*
Y218347D01*
X419000D01*
X419800Y219146D02*
Y221547D01*
X422200D01*
Y219146D01*
X419800D01*
X407500Y232846D02*
Y236846D01*
X411500D01*
Y232846D01*
X407500D01*
X408300Y233646D02*
Y236047D01*
X410700D01*
Y233646D01*
X408300D01*
X402110Y236480D02*
Y240480D01*
X406110D01*
Y236480D01*
X402110D01*
X402910Y237280D02*
Y239680D01*
X405310D01*
Y237280D01*
X402910D01*
X269500Y252346D02*
Y256347D01*
X273500D01*
Y252346D01*
X269500D01*
X270300Y253147D02*
Y255546D01*
X272700D01*
Y253147D01*
X270300D01*
X269500Y257347D02*
Y261347D01*
X273500D01*
Y257347D01*
X269500D01*
X270300Y258147D02*
Y260546D01*
X272700D01*
Y258147D01*
X270300D01*
X253000Y292347D02*
Y296346D01*
X257000D01*
Y292347D01*
X253000D01*
X253800Y293146D02*
Y295547D01*
X256200D01*
Y293146D01*
X253800D01*
X253000Y286846D02*
Y290846D01*
X257000D01*
Y286846D01*
X253000D01*
X253800Y287647D02*
Y290047D01*
X256200D01*
Y287647D01*
X253800D01*
X253000Y281347D02*
Y285347D01*
X257000D01*
Y281347D01*
X253000D01*
X253800Y282147D02*
Y284546D01*
X256200D01*
Y282147D01*
X253800D01*
X364000Y455346D02*
Y459346D01*
X368000D01*
Y455346D01*
X364000D01*
X364800Y456146D02*
Y458546D01*
X367200D01*
Y456146D01*
X364800D01*
X364500Y450846D02*
Y454846D01*
X368500D01*
Y450846D01*
X364500D01*
X365300Y451647D02*
Y454046D01*
X367700D01*
Y451647D01*
X365300D01*
X361000Y458847D02*
Y462847D01*
X365000D01*
Y458847D01*
X361000D01*
X361800Y459647D02*
Y462046D01*
X364200D01*
Y459647D01*
X361800D01*
X357500Y461846D02*
Y465846D01*
X361500D01*
Y461846D01*
X357500D01*
X358300Y462646D02*
Y465047D01*
X360700D01*
Y462646D01*
X358300D01*
X352500Y461846D02*
Y465846D01*
X356500D01*
Y461846D01*
X352500D01*
X353300Y462646D02*
Y465047D01*
X355700D01*
Y462646D01*
X353300D01*
X418500Y450846D02*
Y454846D01*
X422500D01*
Y450846D01*
X418500D01*
X419300Y451647D02*
Y454046D01*
X421700D01*
Y451647D01*
X419300D01*
X424000Y450846D02*
Y454846D01*
X428000D01*
Y450846D01*
X424000D01*
X424800Y451647D02*
Y454046D01*
X427200D01*
Y451647D01*
X424800D01*
X429500Y450846D02*
Y454846D01*
X433500D01*
Y450846D01*
X429500D01*
X430300Y451647D02*
Y454046D01*
X432700D01*
Y451647D01*
X430300D01*
X429500Y446347D02*
Y450347D01*
X433500D01*
Y446347D01*
X429500D01*
X430300Y447147D02*
Y449546D01*
X432700D01*
Y447147D01*
X430300D01*
X424000Y446347D02*
Y450347D01*
X428000D01*
Y446347D01*
X424000D01*
X424800Y447147D02*
Y449546D01*
X427200D01*
Y447147D01*
X424800D01*
X418500Y446347D02*
Y450347D01*
X422500D01*
Y446347D01*
X418500D01*
X419300Y447147D02*
Y449546D01*
X421700D01*
Y447147D01*
X419300D01*
X418500Y441347D02*
Y445346D01*
X422500D01*
Y441347D01*
X418500D01*
X419300Y442146D02*
Y444547D01*
X421700D01*
Y442146D01*
X419300D01*
X424000Y441347D02*
Y445346D01*
X428000D01*
Y441347D01*
X424000D01*
X424800Y442146D02*
Y444547D01*
X427200D01*
Y442146D01*
X424800D01*
X429500Y441347D02*
Y445346D01*
X433500D01*
Y441347D01*
X429500D01*
X430300Y442146D02*
Y444547D01*
X432700D01*
Y442146D01*
X430300D01*
X283500Y441847D02*
Y445847D01*
X287500D01*
Y441847D01*
X283500D01*
X284300Y442647D02*
Y445047D01*
X286700D01*
Y442647D01*
X284300D01*
X278000Y441847D02*
Y445847D01*
X282000D01*
Y441847D01*
X278000D01*
X278800Y442647D02*
Y445047D01*
X281200D01*
Y442647D01*
X278800D01*
X272500Y441847D02*
Y445847D01*
X276500D01*
Y441847D01*
X272500D01*
X273300Y442647D02*
Y445047D01*
X275700D01*
Y442647D01*
X273300D01*
X272500Y446846D02*
Y450846D01*
X276500D01*
Y446846D01*
X272500D01*
X273300Y447647D02*
Y450046D01*
X275700D01*
Y447647D01*
X273300D01*
X278000Y446846D02*
Y450846D01*
X282000D01*
Y446846D01*
X278000D01*
X278800Y447647D02*
Y450046D01*
X281200D01*
Y447647D01*
X278800D01*
X283500Y446846D02*
Y450846D01*
X287500D01*
Y446846D01*
X283500D01*
X284300Y447647D02*
Y450046D01*
X286700D01*
Y447647D01*
X284300D01*
X283500Y451346D02*
Y455346D01*
X287500D01*
Y451346D01*
X283500D01*
X284300Y452146D02*
Y454546D01*
X286700D01*
Y452146D01*
X284300D01*
X278000Y451346D02*
Y455346D01*
X282000D01*
Y451346D01*
X278000D01*
X278800Y452146D02*
Y454546D01*
X281200D01*
Y452146D01*
X278800D01*
X272500Y451346D02*
Y455346D01*
X276500D01*
Y451346D01*
X272500D01*
X273300Y452146D02*
Y454546D01*
X275700D01*
Y452146D01*
X273300D01*
X408000Y341846D02*
Y345847D01*
X412000D01*
Y341846D01*
X408000D01*
X408800Y342647D02*
Y345046D01*
X411200D01*
Y342647D01*
X408800D01*
X367500Y325847D02*
Y329847D01*
X371500D01*
Y325847D01*
X367500D01*
X368300Y326646D02*
Y329047D01*
X370700D01*
Y326646D01*
X368300D01*
X419000Y347346D02*
Y351346D01*
X423000D01*
Y347346D01*
X419000D01*
X419800Y348147D02*
Y350547D01*
X422200D01*
Y348147D01*
X419800D01*
X355500Y327346D02*
Y331347D01*
X359500D01*
Y327346D01*
X355500D01*
X356300Y328147D02*
Y330546D01*
X358700D01*
Y328147D01*
X356300D01*
X343500Y344847D02*
Y348847D01*
X347500D01*
Y344847D01*
X343500D01*
X344300Y345647D02*
Y348046D01*
X346700D01*
Y345647D01*
X344300D01*
X288500Y285846D02*
Y289846D01*
X292500D01*
Y285846D01*
X288500D01*
X289300Y286647D02*
Y289047D01*
X291700D01*
Y286647D01*
X289300D01*
X280500Y314347D02*
Y318347D01*
X284500D01*
Y314347D01*
X280500D01*
X281300Y315146D02*
Y317547D01*
X283700D01*
Y315146D01*
X281300D01*
X452000Y345847D02*
Y349847D01*
X456000D01*
Y345847D01*
X452000D01*
X452800Y346646D02*
Y349046D01*
X455200D01*
Y346646D01*
X452800D01*
X424000Y340347D02*
Y344346D01*
X428000D01*
Y340347D01*
X424000D01*
X424800Y341146D02*
Y343547D01*
X427200D01*
Y341146D01*
X424800D01*
X347500Y332347D02*
Y336347D01*
X351500D01*
Y332347D01*
X347500D01*
X348300Y333147D02*
Y335546D01*
X350700D01*
Y333147D01*
X348300D01*
X351500Y332399D02*
Y336399D01*
X355500D01*
Y332399D01*
X351500D01*
X352300Y333199D02*
Y335599D01*
X354700D01*
Y333199D01*
X352300D01*
X351500Y338846D02*
Y342846D01*
X355500D01*
Y338846D01*
X351500D01*
X352300Y339647D02*
Y342046D01*
X354700D01*
Y339647D01*
X352300D01*
X347500Y338846D02*
Y342846D01*
X351500D01*
Y338846D01*
X347500D01*
X348300Y339647D02*
Y342046D01*
X350700D01*
Y339647D01*
X348300D01*
X438053Y287347D02*
Y291347D01*
X442053D01*
Y287347D01*
X438053D01*
X438853Y288146D02*
Y290546D01*
X441253D01*
Y288146D01*
X438853D01*
X444500Y287347D02*
Y291347D01*
X448500D01*
Y287347D01*
X444500D01*
X445300Y288146D02*
Y290546D01*
X447700D01*
Y288146D01*
X445300D01*
X450948Y287347D02*
Y291347D01*
X454948D01*
Y287347D01*
X450948D01*
X451748Y288146D02*
Y290546D01*
X454147D01*
Y288146D01*
X451748D01*
X438053Y322847D02*
Y326847D01*
X442053D01*
Y322847D01*
X438053D01*
X438853Y323646D02*
Y326046D01*
X441253D01*
Y323646D01*
X438853D01*
X444500Y322847D02*
Y326847D01*
X448500D01*
Y322847D01*
X444500D01*
X445300Y323646D02*
Y326046D01*
X447700D01*
Y323646D01*
X445300D01*
X450948Y322847D02*
Y326847D01*
X454948D01*
Y322847D01*
X450948D01*
X451748Y323646D02*
Y326046D01*
X454147D01*
Y323646D01*
X451748D01*
X254553Y352346D02*
Y356347D01*
X258553D01*
Y352346D01*
X254553D01*
X255352Y353147D02*
Y355546D01*
X257752D01*
Y353147D01*
X255352D01*
X261000Y352346D02*
Y356347D01*
X265000D01*
Y352346D01*
X261000D01*
X261800Y353147D02*
Y355546D01*
X264200D01*
Y353147D01*
X261800D01*
X267447Y352346D02*
Y356347D01*
X271447D01*
Y352346D01*
X267447D01*
X268248Y353147D02*
Y355546D01*
X270648D01*
Y353147D01*
X268248D01*
X268447Y316347D02*
Y320346D01*
X272447D01*
Y316347D01*
X268447D01*
X269248Y317146D02*
Y319547D01*
X271648D01*
Y317146D01*
X269248D01*
X262000Y316347D02*
Y320346D01*
X266000D01*
Y316347D01*
X262000D01*
X262800Y317146D02*
Y319547D01*
X265200D01*
Y317146D01*
X262800D01*
X255553Y316347D02*
Y320346D01*
X259553D01*
Y316347D01*
X255553D01*
X256352Y317146D02*
Y319547D01*
X258752D01*
Y317146D01*
X256352D01*
X389000Y268347D02*
Y272346D01*
X393000D01*
Y268347D01*
X389000D01*
X389800Y269146D02*
Y271547D01*
X392200D01*
Y269146D01*
X389800D01*
X381100Y268347D02*
Y272346D01*
X385100D01*
Y268347D01*
X381100D01*
X381900Y269146D02*
Y271547D01*
X384300D01*
Y269146D01*
X381900D01*
X373200Y268347D02*
Y272346D01*
X377200D01*
Y268347D01*
X373200D01*
X374000Y269146D02*
Y271547D01*
X376400D01*
Y269146D01*
X374000D01*
X365300Y268347D02*
Y272346D01*
X369300D01*
Y268347D01*
X365300D01*
X366100Y269146D02*
Y271547D01*
X368500D01*
Y269146D01*
X366100D01*
X419500Y316347D02*
Y320346D01*
X423500D01*
Y316347D01*
X419500D01*
X420300Y317146D02*
Y319547D01*
X422700D01*
Y317146D01*
X420300D01*
X285500Y321346D02*
Y325346D01*
X289500D01*
Y321346D01*
X285500D01*
X286300Y322147D02*
Y324547D01*
X288700D01*
Y322147D01*
X286300D01*
X289500Y268347D02*
Y272346D01*
X293500D01*
Y268347D01*
X289500D01*
X290300Y269146D02*
Y271547D01*
X292700D01*
Y269146D01*
X290300D01*
X313000Y283846D02*
Y287846D01*
X317000D01*
Y283846D01*
X313000D01*
X313800Y284647D02*
Y287047D01*
X316200D01*
Y284647D01*
X313800D01*
X302000Y273346D02*
Y277346D01*
X306000D01*
Y273346D01*
X302000D01*
X302800Y274147D02*
Y276547D01*
X305200D01*
Y274147D01*
X302800D01*
X307000Y272346D02*
Y276346D01*
X311000D01*
Y272346D01*
X307000D01*
X307800Y273147D02*
Y275547D01*
X310200D01*
Y273147D01*
X307800D01*
X399000Y264846D02*
Y268847D01*
X403000D01*
Y264846D01*
X399000D01*
X399800Y265647D02*
Y268046D01*
X402200D01*
Y265647D01*
X399800D01*
X399000Y245847D02*
Y249847D01*
X403000D01*
Y245847D01*
X399000D01*
X399800Y246646D02*
Y249046D01*
X402200D01*
Y246646D01*
X399800D01*
X391000Y246346D02*
Y250346D01*
X395000D01*
Y246346D01*
X391000D01*
X391800Y247147D02*
Y249547D01*
X394200D01*
Y247147D01*
X391800D01*
D66*
X367280Y194532D02*
G03*
X367280Y194532I-2000J0D01*
G01*
X339721D02*
G03*
X339721Y194532I-2000J0D01*
G01*
M02*
