G04*
G04 #@! TF.GenerationSoftware,Altium Limited,Altium Designer,24.6.1 (21)*
G04*
G04 Layer_Color=8388736*
%FSLAX25Y25*%
%MOIN*%
G70*
G04*
G04 #@! TF.SameCoordinates,3E969972-8C0A-4DBC-9D31-E8772DB7AAD8*
G04*
G04*
G04 #@! TF.FilePolarity,Positive*
G04*
G01*
G75*
%ADD11C,0.00787*%
D11*
X370070Y241817D02*
Y248904D01*
X358652D02*
X370070D01*
X358652Y241817D02*
Y248904D01*
Y241817D02*
X370070D01*
X329754Y254697D02*
X351148D01*
Y233303D02*
Y254697D01*
X329754Y233303D02*
X351148D01*
X329754D02*
Y254697D01*
X294850Y216925D02*
X301150D01*
X294850D02*
Y220075D01*
X301150D01*
Y216925D02*
Y220075D01*
X297925Y230007D02*
Y236307D01*
X301075D01*
Y230007D02*
Y236307D01*
X297925Y230007D02*
X301075D01*
X354153Y217791D02*
Y229209D01*
X347854D02*
X354153D01*
X347854Y217791D02*
X347854Y229209D01*
X347854Y217791D02*
X354153D01*
X283650Y255272D02*
Y258421D01*
X277350D02*
X283650D01*
X277350Y255272D02*
Y258421D01*
Y255272D02*
X283650D01*
X416153Y303815D02*
X422847D01*
Y299878D02*
Y303815D01*
X416153Y299878D02*
X422847D01*
X416153D02*
Y303815D01*
X283650Y245425D02*
Y248575D01*
X277350D02*
X283650D01*
X277350Y245425D02*
Y248575D01*
Y245425D02*
X283650D01*
X262925Y276697D02*
X262925Y282996D01*
X266075Y282996D01*
X266075Y276697D02*
X266075Y282996D01*
X262925Y276697D02*
X266075Y276697D01*
X399425Y255540D02*
Y261839D01*
X402575D01*
Y255540D02*
Y261839D01*
X399425Y255540D02*
X402575D01*
X285653Y340878D02*
X292347D01*
X285653D02*
Y344815D01*
X292347Y344815D01*
Y340878D02*
Y344815D01*
X259850Y292772D02*
X266150D01*
X259850D02*
Y295921D01*
X266150D01*
Y292772D02*
Y295921D01*
X441350Y349421D02*
X447650D01*
Y346272D02*
Y349421D01*
X441350Y346272D02*
X447650D01*
X441350D02*
Y349421D01*
X448255Y364686D02*
Y490670D01*
X403767Y364686D02*
X448255D01*
X403767D02*
Y490670D01*
X448255D01*
X409350Y232421D02*
X415650D01*
Y229272D02*
Y232421D01*
X409350Y229272D02*
X415650D01*
X409350D02*
Y232421D01*
X321201Y429396D02*
Y458297D01*
X345799D01*
Y429396D02*
Y458297D01*
X321201Y429396D02*
X345799D01*
X302955Y364686D02*
Y490670D01*
X258467Y364686D02*
X302955Y364686D01*
X258467Y364686D02*
Y490670D01*
X302955D01*
X306575Y324372D02*
Y330671D01*
X303425Y324372D02*
X306575D01*
X303425D02*
Y330671D01*
X306575D01*
X402425Y310540D02*
Y316839D01*
X405575D01*
Y310540D02*
Y316839D01*
X402425Y310540D02*
X405575D01*
X267425Y342197D02*
Y348496D01*
X270575D01*
Y342197D02*
Y348496D01*
X267425Y342197D02*
X270575D01*
Y324372D02*
Y330671D01*
X267425Y324372D02*
X270575D01*
X267425D02*
Y330671D01*
X270575D01*
X267425Y306372D02*
Y312671D01*
X270575D01*
Y306372D02*
Y312671D01*
X267425Y306372D02*
X270575D01*
X442330Y330985D02*
Y337284D01*
X439180Y330985D02*
X442330Y330985D01*
X439180Y337284D02*
X439180Y330985D01*
X439180Y337284D02*
X442330Y337284D01*
X442330Y295171D02*
Y301470D01*
X439180Y295171D02*
X442330D01*
X439180D02*
Y301470D01*
X442330Y301470D01*
X439180Y312828D02*
Y319127D01*
X442330D01*
Y312828D02*
Y319127D01*
X439180Y312828D02*
X442330Y312828D01*
M02*
