G04*
G04 #@! TF.GenerationSoftware,Altium Limited,Altium Designer,24.6.1 (21)*
G04*
G04 Layer_Color=128*
%FSLAX25Y25*%
%MOIN*%
G70*
G04*
G04 #@! TF.SameCoordinates,3E969972-8C0A-4DBC-9D31-E8772DB7AAD8*
G04*
G04*
G04 #@! TF.FilePolarity,Positive*
G04*
G01*
G75*
%ADD65C,0.00500*%
D65*
X359669Y205161D02*
X363016D01*
X361343Y203488D02*
Y206835D01*
X339984Y205161D02*
X343331D01*
X341657Y203488D02*
Y206835D01*
X364098Y194532D02*
X366461D01*
X365280Y193350D02*
Y195713D01*
X336539Y194532D02*
X338902D01*
X337720Y193350D02*
Y195713D01*
X276622Y204000D02*
X279378D01*
X278000Y202622D02*
Y205378D01*
X276622Y196126D02*
X279378D01*
X278000Y194748D02*
Y197504D01*
X313835Y196346D02*
X318165D01*
X316000Y194181D02*
Y198512D01*
X323835Y196346D02*
X328165D01*
X326000Y194181D02*
Y198512D01*
X303835Y196346D02*
X308165D01*
X306000Y194181D02*
Y198512D01*
X293835Y196346D02*
X298165D01*
X296000Y194181D02*
Y198512D01*
X388701Y198846D02*
X401299D01*
X395000Y192547D02*
Y205146D01*
X381701Y514847D02*
X394299D01*
X388000Y508547D02*
Y521146D01*
X314701Y514847D02*
X327299D01*
X321000Y508547D02*
Y521146D01*
X418232Y514347D02*
X434768D01*
X426500Y506079D02*
Y522614D01*
X271732Y514347D02*
X288268D01*
X280000Y506079D02*
Y522614D01*
X429976Y211784D02*
X432732D01*
X431354Y210405D02*
Y213161D01*
X429976Y203909D02*
X432732D01*
X431354Y202532D02*
Y205287D01*
X430122Y236846D02*
X432878D01*
X431500Y235469D02*
Y238224D01*
X430122Y228972D02*
X432878D01*
X431500Y227594D02*
Y230350D01*
X424043Y481812D02*
X427980D01*
X426011Y479844D02*
Y483780D01*
X424043Y373544D02*
X427980D01*
X426011Y371576D02*
Y375513D01*
X278742Y481812D02*
X282679D01*
X280711Y479844D02*
Y483780D01*
X278742Y373544D02*
X282679D01*
X280711Y371576D02*
Y375513D01*
X382169Y357846D02*
X390831D01*
X386500Y353516D02*
Y362177D01*
X314669Y357846D02*
X323331D01*
X319000Y353516D02*
Y362177D01*
X382169Y413846D02*
X390831D01*
X386500Y409516D02*
Y418177D01*
X314169Y413846D02*
X322831D01*
X318500Y409516D02*
Y418177D01*
X383016Y204500D02*
X384984D01*
X384000Y203516D02*
Y205484D01*
X371516Y218500D02*
X373484D01*
X372500Y217516D02*
Y219484D01*
X363798Y215151D02*
X365767D01*
X364782Y214167D02*
Y216135D01*
X354516Y251500D02*
X356484D01*
X355500Y250516D02*
Y252484D01*
X354352Y215664D02*
X356320D01*
X355336Y214680D02*
Y216648D01*
X355516Y211347D02*
X357484D01*
X356500Y210362D02*
Y212331D01*
X304016Y224500D02*
X305984D01*
X305000Y223516D02*
Y225484D01*
X376412Y237831D02*
X378380D01*
X377396Y236846D02*
Y238815D01*
X371516Y204500D02*
X373484D01*
X372500Y203516D02*
Y205484D01*
X377516Y232500D02*
X379484D01*
X378500Y231516D02*
Y233484D01*
X383016Y191000D02*
X384984D01*
X384000Y190016D02*
Y191984D01*
X371516Y191000D02*
X373484D01*
X372500Y190016D02*
Y191984D01*
X271516Y225500D02*
X273484D01*
X272500Y224516D02*
Y226484D01*
X287516Y214000D02*
X289484D01*
X288500Y213016D02*
Y214984D01*
X306516Y237500D02*
X308484D01*
X307500Y236516D02*
Y238484D01*
X306516Y246500D02*
X308484D01*
X307500Y245516D02*
Y247484D01*
X338016Y213000D02*
X339984D01*
X339000Y212016D02*
Y213984D01*
X330016Y213000D02*
X331984D01*
X331000Y212016D02*
Y213984D01*
X418016Y191000D02*
X419984D01*
X419000Y190016D02*
Y191984D01*
X406939Y211423D02*
X408908D01*
X407923Y210439D02*
Y212407D01*
X286016Y270847D02*
X287984D01*
X287000Y269862D02*
Y271831D01*
X395516Y215846D02*
X397484D01*
X396500Y214862D02*
Y216831D01*
X394516Y225346D02*
X396484D01*
X395500Y224362D02*
Y226331D01*
X281516Y324847D02*
X283484D01*
X282500Y323862D02*
Y325831D01*
X425516Y318847D02*
X427484D01*
X426500Y317862D02*
Y319831D01*
X281016Y280346D02*
X282984D01*
X282000Y279362D02*
Y281331D01*
X386016Y293847D02*
X387984D01*
X387000Y292862D02*
Y294831D01*
X375516Y293847D02*
X377484D01*
X376500Y292862D02*
Y294831D01*
X365016Y293847D02*
X366984D01*
X366000Y292862D02*
Y294831D01*
X354516Y293847D02*
X356484D01*
X355500Y292862D02*
Y294831D01*
X344016Y293847D02*
X345984D01*
X345000Y292862D02*
Y294831D01*
X333516Y293847D02*
X335484D01*
X334500Y292862D02*
Y294831D01*
X323016Y293847D02*
X324984D01*
X324000Y292862D02*
Y294831D01*
X420016Y220346D02*
X421984D01*
X421000Y219362D02*
Y221331D01*
X408516Y234846D02*
X410484D01*
X409500Y233862D02*
Y235831D01*
X403126Y238480D02*
X405094D01*
X404110Y237496D02*
Y239464D01*
X270516Y254346D02*
X272484D01*
X271500Y253362D02*
Y255331D01*
X270516Y259347D02*
X272484D01*
X271500Y258362D02*
Y260331D01*
X254016Y294346D02*
X255984D01*
X255000Y293362D02*
Y295331D01*
X254016Y288846D02*
X255984D01*
X255000Y287862D02*
Y289831D01*
X254016Y283347D02*
X255984D01*
X255000Y282362D02*
Y284331D01*
X365016Y457346D02*
X366984D01*
X366000Y456362D02*
Y458331D01*
X365516Y452846D02*
X367484D01*
X366500Y451862D02*
Y453831D01*
X362016Y460847D02*
X363984D01*
X363000Y459862D02*
Y461831D01*
X358516Y463846D02*
X360484D01*
X359500Y462862D02*
Y464831D01*
X353516Y463846D02*
X355484D01*
X354500Y462862D02*
Y464831D01*
X419516Y452846D02*
X421484D01*
X420500Y451862D02*
Y453831D01*
X425016Y452846D02*
X426984D01*
X426000Y451862D02*
Y453831D01*
X430516Y452846D02*
X432484D01*
X431500Y451862D02*
Y453831D01*
X430516Y448347D02*
X432484D01*
X431500Y447362D02*
Y449331D01*
X425016Y448347D02*
X426984D01*
X426000Y447362D02*
Y449331D01*
X419516Y448347D02*
X421484D01*
X420500Y447362D02*
Y449331D01*
X419516Y443347D02*
X421484D01*
X420500Y442362D02*
Y444331D01*
X425016Y443347D02*
X426984D01*
X426000Y442362D02*
Y444331D01*
X430516Y443347D02*
X432484D01*
X431500Y442362D02*
Y444331D01*
X284516Y443847D02*
X286484D01*
X285500Y442862D02*
Y444831D01*
X279016Y443847D02*
X280984D01*
X280000Y442862D02*
Y444831D01*
X273516Y443847D02*
X275484D01*
X274500Y442862D02*
Y444831D01*
X273516Y448846D02*
X275484D01*
X274500Y447862D02*
Y449831D01*
X279016Y448846D02*
X280984D01*
X280000Y447862D02*
Y449831D01*
X284516Y448846D02*
X286484D01*
X285500Y447862D02*
Y449831D01*
X284516Y453346D02*
X286484D01*
X285500Y452362D02*
Y454331D01*
X279016Y453346D02*
X280984D01*
X280000Y452362D02*
Y454331D01*
X273516Y453346D02*
X275484D01*
X274500Y452362D02*
Y454331D01*
X409016Y343847D02*
X410984D01*
X410000Y342862D02*
Y344831D01*
X368516Y327847D02*
X370484D01*
X369500Y326862D02*
Y328831D01*
X420016Y349346D02*
X421984D01*
X421000Y348362D02*
Y350331D01*
X356516Y329346D02*
X358484D01*
X357500Y328362D02*
Y330331D01*
X344516Y346847D02*
X346484D01*
X345500Y345862D02*
Y347831D01*
X289516Y287846D02*
X291484D01*
X290500Y286862D02*
Y288831D01*
X281516Y316347D02*
X283484D01*
X282500Y315362D02*
Y317331D01*
X453016Y347847D02*
X454984D01*
X454000Y346862D02*
Y348831D01*
X425016Y342347D02*
X426984D01*
X426000Y341362D02*
Y343331D01*
X348516Y334347D02*
X350484D01*
X349500Y333362D02*
Y335331D01*
X352516Y334399D02*
X354484D01*
X353500Y333415D02*
Y335383D01*
X352516Y340846D02*
X354484D01*
X353500Y339862D02*
Y341831D01*
X348516Y340846D02*
X350484D01*
X349500Y339862D02*
Y341831D01*
X439068Y289347D02*
X441037D01*
X440053Y288362D02*
Y290331D01*
X445516Y289347D02*
X447484D01*
X446500Y288362D02*
Y290331D01*
X451963Y289347D02*
X453932D01*
X452948Y288362D02*
Y290331D01*
X439068Y324847D02*
X441037D01*
X440053Y323862D02*
Y325831D01*
X445516Y324847D02*
X447484D01*
X446500Y323862D02*
Y325831D01*
X451963Y324847D02*
X453932D01*
X452948Y323862D02*
Y325831D01*
X255568Y354346D02*
X257537D01*
X256553Y353362D02*
Y355331D01*
X262016Y354346D02*
X263984D01*
X263000Y353362D02*
Y355331D01*
X268463Y354346D02*
X270432D01*
X269447Y353362D02*
Y355331D01*
X269463Y318347D02*
X271432D01*
X270447Y317362D02*
Y319331D01*
X263016Y318347D02*
X264984D01*
X264000Y317362D02*
Y319331D01*
X256568Y318347D02*
X258537D01*
X257553Y317362D02*
Y319331D01*
X390016Y270346D02*
X391984D01*
X391000Y269362D02*
Y271331D01*
X382116Y270346D02*
X384084D01*
X383100Y269362D02*
Y271331D01*
X374216Y270346D02*
X376184D01*
X375200Y269362D02*
Y271331D01*
X366316Y270346D02*
X368284D01*
X367300Y269362D02*
Y271331D01*
X420516Y318347D02*
X422484D01*
X421500Y317362D02*
Y319331D01*
X286516Y323346D02*
X288484D01*
X287500Y322362D02*
Y324331D01*
X290516Y270346D02*
X292484D01*
X291500Y269362D02*
Y271331D01*
X314016Y285846D02*
X315984D01*
X315000Y284862D02*
Y286831D01*
X303016Y275346D02*
X304984D01*
X304000Y274362D02*
Y276331D01*
X308016Y274346D02*
X309984D01*
X309000Y273362D02*
Y275331D01*
X400016Y266846D02*
X401984D01*
X401000Y265862D02*
Y267831D01*
X400016Y247847D02*
X401984D01*
X401000Y246862D02*
Y248831D01*
X392016Y248346D02*
X393984D01*
X393000Y247362D02*
Y249331D01*
M02*
