G04*
G04 #@! TF.GenerationSoftware,Altium Limited,Altium Designer,24.6.1 (21)*
G04*
G04 Layer_Color=255*
%FSLAX25Y25*%
%MOIN*%
G70*
G04*
G04 #@! TF.SameCoordinates,3E969972-8C0A-4DBC-9D31-E8772DB7AAD8*
G04*
G04*
G04 #@! TF.FilePolarity,Positive*
G04*
G01*
G75*
%ADD29R,0.06102X0.05906*%
%ADD32R,0.03937X0.03150*%
%ADD45C,0.05709*%
%ADD46R,0.04724X0.04724*%
%ADD47C,0.04724*%
%ADD48C,0.06299*%
G04:AMPARAMS|DCode=49|XSize=62.99mil|YSize=62.99mil|CornerRadius=15.75mil|HoleSize=0mil|Usage=FLASHONLY|Rotation=180.000|XOffset=0mil|YOffset=0mil|HoleType=Round|Shape=RoundedRectangle|*
%AMROUNDEDRECTD49*
21,1,0.06299,0.03150,0,0,180.0*
21,1,0.03150,0.06299,0,0,180.0*
1,1,0.03150,-0.01575,0.01575*
1,1,0.03150,0.01575,0.01575*
1,1,0.03150,0.01575,-0.01575*
1,1,0.03150,-0.01575,-0.01575*
%
%ADD49ROUNDEDRECTD49*%
%ADD50C,0.12598*%
%ADD51C,0.23622*%
%ADD52R,0.06102X0.06102*%
%ADD53C,0.06102*%
%ADD54C,0.11811*%
%ADD58R,0.00984X0.01417*%
%ADD59R,0.12795X0.04134*%
D29*
X377500Y251543D02*
D03*
Y244457D02*
D03*
D32*
X384000Y214953D02*
D03*
Y209047D02*
D03*
X372500Y214453D02*
D03*
Y208547D02*
D03*
X262500Y201953D02*
D03*
Y196047D02*
D03*
D45*
X361343Y205161D02*
D03*
X341657Y205161D02*
D03*
D46*
X278000Y204000D02*
D03*
X431354Y203909D02*
D03*
X431500Y228972D02*
D03*
D47*
X278000Y196126D02*
D03*
X431354Y211784D02*
D03*
X431500Y236846D02*
D03*
D48*
X316000Y196346D02*
D03*
X306000D02*
D03*
X296000D02*
D03*
D49*
X326000D02*
D03*
D50*
X395000Y198846D02*
D03*
X388000Y514847D02*
D03*
X321000D02*
D03*
D51*
X426500Y514347D02*
D03*
X280000D02*
D03*
D52*
X426011Y481812D02*
D03*
X280711Y481812D02*
D03*
D53*
X426011Y373544D02*
D03*
X280711Y373544D02*
D03*
D54*
X386500Y357846D02*
D03*
X319000D02*
D03*
X386500Y413846D02*
D03*
X318500D02*
D03*
D58*
X271000Y203847D02*
D03*
Y207154D02*
D03*
X438000Y203693D02*
D03*
Y207000D02*
D03*
Y240000D02*
D03*
Y236693D02*
D03*
D59*
X280500Y439264D02*
D03*
Y416429D02*
D03*
X426000Y416429D02*
D03*
Y439264D02*
D03*
M02*
