G04*
G04 #@! TF.GenerationSoftware,Altium Limited,Altium Designer,24.6.1 (21)*
G04*
G04 Layer_Color=8388736*
%FSLAX25Y25*%
%MOIN*%
G70*
G04*
G04 #@! TF.SameCoordinates,3E969972-8C0A-4DBC-9D31-E8772DB7AAD8*
G04*
G04*
G04 #@! TF.FilePolarity,Negative*
G04*
G01*
G75*
%ADD16C,0.01968*%
%ADD17R,0.04921X0.04803*%
%ADD18R,0.06614X0.06614*%
%ADD19R,0.01181X0.03543*%
%ADD20R,0.03543X0.01181*%
%ADD21R,0.07500X0.10984*%
%ADD22R,0.04758X0.03985*%
%ADD23R,0.03985X0.04758*%
%ADD24R,0.05906X0.06102*%
%ADD25R,0.01575X0.05315*%
%ADD26R,0.05906X0.07480*%
G04:AMPARAMS|DCode=27|XSize=59.26mil|YSize=22.43mil|CornerRadius=11.22mil|HoleSize=0mil|Usage=FLASHONLY|Rotation=180.000|XOffset=0mil|YOffset=0mil|HoleType=Round|Shape=RoundedRectangle|*
%AMROUNDEDRECTD27*
21,1,0.05926,0.00000,0,0,180.0*
21,1,0.03683,0.02243,0,0,180.0*
1,1,0.02243,-0.01841,0.00000*
1,1,0.02243,0.01841,0.00000*
1,1,0.02243,0.01841,0.00000*
1,1,0.02243,-0.01841,0.00000*
%
%ADD27ROUNDEDRECTD27*%
%ADD28R,0.05926X0.02243*%
%ADD29R,0.06102X0.05906*%
%ADD30R,0.10630X0.12992*%
%ADD31R,0.10630X0.03937*%
%ADD32R,0.03937X0.03150*%
%ADD33R,0.05750X0.02200*%
%ADD34R,0.03150X0.02362*%
%ADD35R,0.22047X0.05118*%
%ADD36R,0.03150X0.03937*%
%ADD37R,0.02362X0.03150*%
%ADD38R,0.09449X0.05118*%
%ADD39R,0.25591X0.24410*%
%ADD40R,0.02200X0.05900*%
%ADD41R,0.03150X0.01339*%
%ADD42R,0.02559X0.01339*%
%ADD43R,0.06732X0.09016*%
%ADD44R,0.09300X0.21200*%
%ADD45C,0.05709*%
%ADD46R,0.04724X0.04724*%
%ADD47C,0.04724*%
%ADD48C,0.06299*%
G04:AMPARAMS|DCode=49|XSize=62.99mil|YSize=62.99mil|CornerRadius=15.75mil|HoleSize=0mil|Usage=FLASHONLY|Rotation=180.000|XOffset=0mil|YOffset=0mil|HoleType=Round|Shape=RoundedRectangle|*
%AMROUNDEDRECTD49*
21,1,0.06299,0.03150,0,0,180.0*
21,1,0.03150,0.06299,0,0,180.0*
1,1,0.03150,-0.01575,0.01575*
1,1,0.03150,0.01575,0.01575*
1,1,0.03150,0.01575,-0.01575*
1,1,0.03150,-0.01575,-0.01575*
%
%ADD49ROUNDEDRECTD49*%
%ADD50C,0.12598*%
%ADD51C,0.23622*%
%ADD52R,0.06102X0.06102*%
%ADD53C,0.06102*%
%ADD54C,0.11811*%
%ADD55C,0.03150*%
G36*
X337327Y192760D02*
X335358D01*
X335358Y196303D01*
X337327D01*
Y192760D01*
D02*
G37*
G36*
X342445Y190791D02*
X337327D01*
Y198272D01*
X342445D01*
Y190791D01*
D02*
G37*
G36*
X365673D02*
X360555D01*
Y198272D01*
X365673D01*
Y190791D01*
D02*
G37*
G36*
X367642Y192760D02*
X365673D01*
Y196303D01*
X367642D01*
X367642Y192760D01*
D02*
G37*
D16*
X338311Y192760D02*
G03*
X338311Y192760I-984J0D01*
G01*
Y196303D02*
G03*
X338311Y196303I-984J0D01*
G01*
X366657Y192760D02*
G03*
X366657Y192760I-984J0D01*
G01*
X366657Y196303D02*
G03*
X366657Y196303I-984J0D01*
G01*
D17*
X358554Y245361D02*
D03*
X370168D02*
D03*
D18*
X391595Y236362D02*
D03*
D19*
X388642Y242268D02*
D03*
X390610D02*
D03*
X392579D02*
D03*
X394547D02*
D03*
Y230457D02*
D03*
X392579D02*
D03*
X390610D02*
D03*
X388642D02*
D03*
D20*
X397500Y239315D02*
D03*
Y237347D02*
D03*
Y235378D02*
D03*
Y233410D02*
D03*
X385689D02*
D03*
Y235378D02*
D03*
Y237347D02*
D03*
Y239315D02*
D03*
D21*
X330902Y244000D02*
D03*
X350000D02*
D03*
D22*
X301157Y218500D02*
D03*
X294843D02*
D03*
X277343Y256846D02*
D03*
X283657D02*
D03*
X277343Y247000D02*
D03*
X283657D02*
D03*
X266157Y294346D02*
D03*
X259843D02*
D03*
X441343Y347847D02*
D03*
X447657D02*
D03*
X409343Y230847D02*
D03*
X415657D02*
D03*
D23*
X299500Y230000D02*
D03*
Y236314D02*
D03*
X264500Y276690D02*
D03*
Y283003D02*
D03*
X401000Y255533D02*
D03*
Y261846D02*
D03*
X305000Y330678D02*
D03*
Y324364D02*
D03*
X404000Y310532D02*
D03*
Y316846D02*
D03*
X269000Y342190D02*
D03*
Y348503D02*
D03*
Y330678D02*
D03*
Y324364D02*
D03*
Y306364D02*
D03*
Y312678D02*
D03*
X440755Y337291D02*
D03*
Y330978D02*
D03*
Y301478D02*
D03*
Y295164D02*
D03*
Y312821D02*
D03*
Y319134D02*
D03*
D24*
X292457Y247000D02*
D03*
X299543D02*
D03*
X409957Y240846D02*
D03*
X417043D02*
D03*
D25*
X346382Y205161D02*
D03*
X348941D02*
D03*
X351500D02*
D03*
X354059D02*
D03*
X356618D02*
D03*
D26*
X347563Y194532D02*
D03*
X355437Y194532D02*
D03*
D27*
X346671Y219760D02*
D03*
Y223500D02*
D03*
Y227240D02*
D03*
X355336Y227240D02*
D03*
Y223500D02*
D03*
D28*
Y219760D02*
D03*
D29*
X330951Y227043D02*
D03*
Y219957D02*
D03*
X366000Y254957D02*
D03*
Y262043D02*
D03*
X419000Y196957D02*
D03*
Y204043D02*
D03*
X334500Y307390D02*
D03*
Y300303D02*
D03*
X355500Y307390D02*
D03*
Y300303D02*
D03*
X345000Y307390D02*
D03*
Y300303D02*
D03*
X324000Y307390D02*
D03*
Y300303D02*
D03*
X387000Y307390D02*
D03*
Y300303D02*
D03*
X376500Y307390D02*
D03*
Y300303D02*
D03*
X366000Y307390D02*
D03*
Y300303D02*
D03*
X264500Y265390D02*
D03*
Y258303D02*
D03*
X389000Y262433D02*
D03*
Y255346D02*
D03*
X258000Y349390D02*
D03*
Y342303D02*
D03*
X258000Y324303D02*
D03*
Y331390D02*
D03*
Y312890D02*
D03*
Y305803D02*
D03*
X451500Y330260D02*
D03*
Y337347D02*
D03*
X377500Y262043D02*
D03*
Y254957D02*
D03*
X451500Y301390D02*
D03*
Y294303D02*
D03*
Y312303D02*
D03*
Y319390D02*
D03*
D30*
X260386Y228000D02*
D03*
D31*
X283614Y237055D02*
D03*
Y228000D02*
D03*
Y218945D02*
D03*
D32*
X364951Y220047D02*
D03*
Y225953D02*
D03*
X365000Y232095D02*
D03*
Y238000D02*
D03*
X315000Y280299D02*
D03*
Y274394D02*
D03*
D33*
X297725Y280346D02*
D03*
Y275346D02*
D03*
Y270346D02*
D03*
Y265347D02*
D03*
X276275D02*
D03*
X276275Y270346D02*
D03*
X276275Y275346D02*
D03*
Y280346D02*
D03*
D34*
X384000Y195146D02*
D03*
Y200854D02*
D03*
X372500Y200854D02*
D03*
Y195146D02*
D03*
D35*
X384000Y436346D02*
D03*
Y452347D02*
D03*
D36*
X387953Y211347D02*
D03*
X382047D02*
D03*
X402453D02*
D03*
X396547D02*
D03*
Y220346D02*
D03*
X402453D02*
D03*
X410595D02*
D03*
X416500D02*
D03*
X382047D02*
D03*
X387953D02*
D03*
X283500Y294178D02*
D03*
X277594D02*
D03*
X425302Y349478D02*
D03*
X431208D02*
D03*
X416208D02*
D03*
X410302D02*
D03*
X292547Y294178D02*
D03*
X298453D02*
D03*
D37*
X416153Y301847D02*
D03*
X422847D02*
D03*
X292347Y342846D02*
D03*
X285653D02*
D03*
D38*
X356759Y434437D02*
D03*
Y453256D02*
D03*
D39*
X325460Y443847D02*
D03*
D40*
X416255Y312827D02*
D03*
X421255D02*
D03*
X426255D02*
D03*
X431255D02*
D03*
Y334127D02*
D03*
X426255D02*
D03*
X421255D02*
D03*
X416255D02*
D03*
X292500Y330828D02*
D03*
X287500Y330828D02*
D03*
X282500D02*
D03*
X277500Y330828D02*
D03*
Y309528D02*
D03*
X282500Y309528D02*
D03*
X287500D02*
D03*
X292500Y309528D02*
D03*
D41*
X369500Y323847D02*
D03*
Y321287D02*
D03*
Y318728D02*
D03*
Y316169D02*
D03*
X333539Y316508D02*
D03*
Y319067D02*
D03*
Y321626D02*
D03*
Y324185D02*
D03*
X345312Y341520D02*
D03*
Y338961D02*
D03*
Y336402D02*
D03*
Y333843D02*
D03*
X357446D02*
D03*
Y336402D02*
D03*
Y338961D02*
D03*
Y341520D02*
D03*
D42*
X357394Y316169D02*
D03*
Y318728D02*
D03*
Y321287D02*
D03*
Y323847D02*
D03*
X345646Y324185D02*
D03*
Y321626D02*
D03*
Y319067D02*
D03*
Y316508D02*
D03*
X333206Y333843D02*
D03*
Y336402D02*
D03*
Y338961D02*
D03*
Y341520D02*
D03*
X369552D02*
D03*
Y338961D02*
D03*
Y336402D02*
D03*
Y333843D02*
D03*
D43*
X362039Y320008D02*
D03*
X341000Y320346D02*
D03*
X337852Y337682D02*
D03*
X364907D02*
D03*
D44*
X443450Y264347D02*
D03*
X416550D02*
D03*
D45*
X361343Y205161D02*
D03*
X341657Y205161D02*
D03*
D46*
X278000Y204000D02*
D03*
X431354Y203909D02*
D03*
X431500Y228972D02*
D03*
D47*
X278000Y196126D02*
D03*
X431354Y211784D02*
D03*
X431500Y236846D02*
D03*
D48*
X316000Y196346D02*
D03*
X306000D02*
D03*
X296000D02*
D03*
D49*
X326000D02*
D03*
D50*
X395000Y198846D02*
D03*
X388000Y514847D02*
D03*
X321000D02*
D03*
D51*
X426500Y514347D02*
D03*
X280000D02*
D03*
D52*
X426011Y481812D02*
D03*
X280711Y481812D02*
D03*
D53*
X426011Y373544D02*
D03*
X280711Y373544D02*
D03*
D54*
X386500Y357846D02*
D03*
X319000D02*
D03*
X386500Y413846D02*
D03*
X318500D02*
D03*
D55*
X384000Y204500D02*
D03*
X372500Y218500D02*
D03*
X364782Y215151D02*
D03*
X355500Y251500D02*
D03*
X355336Y215664D02*
D03*
X356500Y211347D02*
D03*
X305000Y224500D02*
D03*
X377396Y237831D02*
D03*
X372500Y204500D02*
D03*
X378500Y232500D02*
D03*
X384000Y191000D02*
D03*
X372500D02*
D03*
X272500Y225500D02*
D03*
X288500Y214000D02*
D03*
X307500Y237500D02*
D03*
Y246500D02*
D03*
X339000Y213000D02*
D03*
X331000D02*
D03*
X419000Y191000D02*
D03*
X407923Y211423D02*
D03*
X287000Y270847D02*
D03*
X396500Y215846D02*
D03*
X395500Y225346D02*
D03*
X282500Y324847D02*
D03*
X426500Y318847D02*
D03*
X282000Y280346D02*
D03*
X387000Y293847D02*
D03*
X376500D02*
D03*
X366000D02*
D03*
X355500D02*
D03*
X345000D02*
D03*
X334500D02*
D03*
X324000D02*
D03*
X421000Y220346D02*
D03*
X409500Y234846D02*
D03*
X404110Y238480D02*
D03*
X271500Y254346D02*
D03*
Y259347D02*
D03*
X255000Y294346D02*
D03*
Y288846D02*
D03*
Y283347D02*
D03*
X366000Y457346D02*
D03*
X366500Y452846D02*
D03*
X363000Y460847D02*
D03*
X359500Y463846D02*
D03*
X354500D02*
D03*
X420500Y452846D02*
D03*
X426000D02*
D03*
X431500D02*
D03*
Y448347D02*
D03*
X426000D02*
D03*
X420500D02*
D03*
Y443347D02*
D03*
X426000D02*
D03*
X431500D02*
D03*
X285500Y443847D02*
D03*
X280000D02*
D03*
X274500D02*
D03*
Y448846D02*
D03*
X280000D02*
D03*
X285500D02*
D03*
Y453346D02*
D03*
X280000D02*
D03*
X274500D02*
D03*
X410000Y343847D02*
D03*
X369500Y327847D02*
D03*
X421000Y349346D02*
D03*
X357500Y329346D02*
D03*
X345500Y346847D02*
D03*
X290500Y287846D02*
D03*
X282500Y316347D02*
D03*
X454000Y347847D02*
D03*
X426000Y342347D02*
D03*
X349500Y334347D02*
D03*
X353500Y334399D02*
D03*
Y340846D02*
D03*
X349500D02*
D03*
X440053Y289347D02*
D03*
X446500D02*
D03*
X452948D02*
D03*
X440053Y324847D02*
D03*
X446500D02*
D03*
X452948D02*
D03*
X256553Y354346D02*
D03*
X263000D02*
D03*
X269447D02*
D03*
X270447Y318347D02*
D03*
X264000D02*
D03*
X257553D02*
D03*
X391000Y270346D02*
D03*
X383100D02*
D03*
X375200D02*
D03*
X367300D02*
D03*
X421500Y318347D02*
D03*
X287500Y323346D02*
D03*
X291500Y270346D02*
D03*
X315000Y285846D02*
D03*
X304000Y275346D02*
D03*
X309000Y274346D02*
D03*
X401000Y266846D02*
D03*
Y247847D02*
D03*
X393000Y248346D02*
D03*
M02*
