M48
;Layer_Color=9474304
;FILE_FORMAT=2:4
INCH,TZ
;TYPE=PLATED
T01F00S00C0.0197
T03F00S00C0.0276
T04F00S00C0.0335
T05F00S00C0.0394
T06F00S00C0.0433
T07F00S00C0.0866
T08F00S00C0.1260
T09F00S00C0.1654
%
T01
X33100Y21300
X33900
X35534Y21566
X35650Y21135
X36478Y21515
X37250Y21850
Y20450
X38400
Y19100
X37250
X41900
X42100Y22035
X40792Y21142
X39650Y21585
X39550Y22535
X40411Y23848
X40950Y23485
X40100Y24785
X39300Y24835
X39100Y27035
X38310
X37520
X36730
X36600Y29385
X37650
X38700
X35550
X34500
X33450
X32400
X31500Y28585
X35550Y25150
X37740Y23783
X37850Y23250
X40100Y26685
X44005Y28935
X44650
X45295
X30900Y27435
X30400Y27535
X29150Y27035
X28700Y27085
X28200Y28035
X29050Y28785
X25500Y28885
Y29435
Y28335
X27150Y25935
Y25435
X27250Y22550
X28850Y21400
X30500Y22450
X30750Y23750
Y24650
X28250Y31635
Y32485
X28750Y32335
X27045Y31835
X26400
X25755
X25655Y35435
X26300
X26945
X27450Y44385
Y44885
Y45335
X28000
Y44885
Y44385
X28550
Y44885
Y45335
X35450Y46385
X35950
X36300Y46085
X36600Y45735
X36650Y45285
X42050
Y44835
Y44335
X42600
Y44835
Y45285
X43150
Y44835
Y44335
X42100Y34935
X42600Y34235
X41000Y34385
X42150Y31835
X42650Y31885
X44005Y32485
X44650
X45295
X45400Y34785
X36950Y32785
X35750Y32935
X35350Y33440
X34950Y33435
Y34085
X35350
X34550Y34685
T03
X43135Y20391
Y21178
X43150Y22897
Y23685
X27800Y20400
Y19613
T04
X34166Y20516
X36134Y20516
T05
X28071Y37354
X42601Y37354
Y48181
X28071Y48181
T06
X31600Y19635
X32600
X30600
X29600
T07
X31900Y35785
X31850Y41385
X38650
Y35785
T08
X39500Y19885
X38800Y51485
X32100
T09
X42650Y51435
X28000
M30
