G04*
G04 #@! TF.GenerationSoftware,Altium Limited,Altium Designer,24.6.1 (21)*
G04*
G04 Layer_Color=16711935*
%FSLAX25Y25*%
%MOIN*%
G70*
G04*
G04 #@! TF.SameCoordinates,3E969972-8C0A-4DBC-9D31-E8772DB7AAD8*
G04*
G04*
G04 #@! TF.FilePolarity,Positive*
G04*
G01*
G75*
%ADD15C,0.00300*%
%ADD60C,0.00394*%
%ADD63C,0.00000*%
%ADD64C,0.00100*%
D15*
X279400Y280676D02*
X282024Y278052D01*
X279400D02*
X282024Y280676D01*
X279400Y279364D02*
X282024D01*
X280712Y278052D02*
Y280676D01*
X416125Y316027D02*
X418749Y318651D01*
Y316027D02*
X416125Y318651D01*
X417437Y316027D02*
Y318651D01*
X418749Y317339D02*
X416125D01*
X292630Y327628D02*
X290006Y325004D01*
Y327628D02*
X292630Y325004D01*
X291318Y327628D02*
Y325004D01*
X290006Y326316D02*
X292630D01*
D60*
X391398Y238528D02*
G03*
X391398Y238528I-1969J0D01*
G01*
X382228Y208653D02*
Y215347D01*
X385772Y208653D02*
Y215347D01*
X382228D02*
X385772D01*
X382228Y208653D02*
X385772D01*
X370728Y208154D02*
Y214846D01*
X374272Y208154D02*
Y214846D01*
X370728D02*
X374272D01*
X370728Y208154D02*
X374272D01*
X374646Y252331D02*
X380354D01*
X374646Y243669D02*
X380354D01*
X374646D02*
Y252331D01*
X380354Y243669D02*
Y252331D01*
X385886Y230654D02*
X397303D01*
X385886Y242071D02*
X397303D01*
Y230654D02*
Y242071D01*
X385886Y230654D02*
Y242071D01*
X291669Y249854D02*
X300331D01*
X291669Y244146D02*
X300331D01*
X291669D02*
Y249854D01*
X300331Y244146D02*
Y249854D01*
X336755Y186067D02*
X366245D01*
X336755D02*
Y204552D01*
X336736Y204571D02*
X366245D01*
Y186067D02*
Y204571D01*
X333805Y227831D02*
X333805Y219169D01*
X328097Y219169D02*
Y227831D01*
X333805D01*
X328097Y219169D02*
X333805Y219169D01*
X264717Y241189D02*
X279283D01*
X264717Y214811D02*
X279283D01*
X264717D02*
Y241189D01*
X279283D02*
X279283Y214811D01*
X253395Y188448D02*
X283316D01*
X253395D02*
Y211676D01*
X253394Y211677D02*
X283316D01*
X283316Y207741D02*
X283316Y211676D01*
X283315Y207740D02*
X283316Y207741D01*
X277016Y207740D02*
X283315Y207740D01*
Y188449D02*
Y192386D01*
X277016D02*
X283315D01*
X277016D02*
Y207740D01*
X363179Y219654D02*
X366722D01*
X363179Y226346D02*
X366722D01*
X363179Y219654D02*
X363179Y226346D01*
X366722Y219654D02*
X366722Y226346D01*
X363146Y254169D02*
Y262831D01*
X368854Y254169D02*
Y262831D01*
X363146Y254169D02*
X368854D01*
X363146Y262831D02*
X368854D01*
X363228Y231701D02*
X366772Y231701D01*
X363228Y238394D02*
X366772D01*
X363228D02*
X363228Y231701D01*
X366772Y231701D02*
Y238394D01*
X416146Y196169D02*
X421854D01*
X416146Y204831D02*
X421854D01*
X416146Y196169D02*
Y204831D01*
X421854Y196169D02*
Y204831D01*
X382425Y194850D02*
Y201150D01*
Y194850D02*
X385575D01*
X382425Y201150D02*
X385575D01*
Y194850D02*
Y201150D01*
X374075Y194850D02*
Y201150D01*
X370925D02*
X374075D01*
X370925Y194850D02*
X374075D01*
X370925D02*
Y201150D01*
X260728Y195653D02*
Y202346D01*
X264272Y195653D02*
Y202346D01*
X260728D02*
X264272D01*
X260728Y195653D02*
X264272D01*
X269819Y207075D02*
X272181D01*
X269819Y203925D02*
X269819Y207075D01*
X269819Y203925D02*
X272181D01*
X272181Y207075D02*
X272181Y203925D01*
X388347Y209575D02*
Y213118D01*
X381653Y209575D02*
Y213118D01*
Y209575D02*
X388347D01*
X381653Y213118D02*
X388347D01*
X402846Y209575D02*
Y213118D01*
X396153Y209575D02*
Y213118D01*
Y209575D02*
X402846D01*
X396153Y213118D02*
X402846D01*
X337354Y299516D02*
Y308177D01*
X331646Y299516D02*
Y308177D01*
X337354D01*
X331646Y299516D02*
X337354D01*
X358354D02*
Y308177D01*
X352646Y299516D02*
Y308177D01*
X358354D01*
X352646Y299516D02*
X358354D01*
X347854D02*
Y308177D01*
X342146Y299516D02*
Y308177D01*
X347854D01*
X342146Y299516D02*
X347854D01*
X326854D02*
Y308177D01*
X321146Y299516D02*
Y308177D01*
X326854D01*
X321146Y299516D02*
X326854D01*
X389854D02*
Y308177D01*
X384146Y299516D02*
Y308177D01*
X389854D01*
X384146Y299516D02*
X389854D01*
X379354D02*
Y308177D01*
X373646Y299516D02*
Y308177D01*
X379354D01*
X373646Y299516D02*
X379354D01*
X368854D02*
Y308177D01*
X363146Y299516D02*
Y308177D01*
X368854D01*
X363146Y299516D02*
X368854D01*
X273807Y415051D02*
Y440642D01*
X287193Y415051D02*
Y440642D01*
X273807D02*
X287193D01*
X273807Y415051D02*
X287193D01*
X436819Y206921D02*
X439181D01*
X436819Y203772D02*
Y206921D01*
Y203772D02*
X439181D01*
Y206921D01*
X432338Y200169D02*
Y215524D01*
X426039Y215524D02*
X432338Y215524D01*
X426039Y215524D02*
Y219461D01*
Y200169D02*
X432338Y200169D01*
X426038Y200168D02*
X426039Y200169D01*
X426038Y200168D02*
X426038Y196233D01*
X426038Y196232D02*
X455961D01*
X455960Y219461D02*
X455960Y196233D01*
X426038Y219461D02*
X455960D01*
X439181Y236772D02*
Y239921D01*
X436819Y236772D02*
X439181D01*
X436819D02*
Y239921D01*
X439181D01*
X316772Y274000D02*
Y280693D01*
X313228Y274000D02*
Y280693D01*
X316772D01*
X313228Y274000D02*
X316772D01*
X267354Y257516D02*
Y266177D01*
X261646Y257516D02*
Y266177D01*
X267354D01*
X261646Y257516D02*
X267354D01*
X386146Y263221D02*
X391854D01*
X386146Y254559D02*
X391854D01*
Y263221D01*
X386146Y254559D02*
Y263221D01*
X432484Y225232D02*
Y240587D01*
X426185Y240587D02*
X432484Y240587D01*
X426185Y240587D02*
Y244524D01*
Y225232D02*
X432484D01*
X426184Y225231D02*
X426185Y225232D01*
X426184Y221296D02*
Y225231D01*
Y221295D02*
X456106D01*
X456105Y221296D02*
X456105Y244525D01*
X426184D02*
X456105D01*
X409169Y237992D02*
Y243701D01*
X417831Y237992D02*
Y243701D01*
X409169D02*
X417831D01*
X409169Y237992D02*
X417831D01*
X255146Y350177D02*
X260854Y350177D01*
X255146Y341516D02*
X260854D01*
X260854Y350177D01*
X255146Y341516D02*
Y350177D01*
X255146Y323516D02*
X260854Y323516D01*
X255146Y332177D02*
X260854D01*
X255146Y323516D02*
X255146Y332177D01*
X260854Y323516D02*
Y332177D01*
X255146Y313677D02*
X260854D01*
X255146Y305016D02*
X260854D01*
Y313677D01*
X255146Y305016D02*
Y313677D01*
X448646Y329472D02*
X454354D01*
X448646Y338134D02*
X454354D01*
X448646Y329472D02*
Y338134D01*
X454354Y329472D02*
Y338134D01*
X396153Y222118D02*
X402846D01*
X396153Y218575D02*
X402846D01*
X396153D02*
Y222118D01*
X402846Y218575D02*
Y222118D01*
X374646Y262831D02*
X380354D01*
X374646Y254169D02*
X380354D01*
Y262831D01*
X374646Y254169D02*
Y262831D01*
X410201Y222118D02*
X416894D01*
X410201Y218575D02*
X416894D01*
X410201D02*
Y222118D01*
X416894Y218575D02*
Y222118D01*
X381653D02*
X388347D01*
X381653Y218575D02*
X388347D01*
X381653D02*
Y222118D01*
X388347Y218575D02*
Y222118D01*
X419307Y415051D02*
X432693D01*
X419307Y440642D02*
X432693D01*
Y415051D02*
Y440642D01*
X419307Y415051D02*
Y440642D01*
X277201Y292407D02*
X283894D01*
X277201Y295950D02*
X283894D01*
Y292407D02*
Y295950D01*
X277201Y292407D02*
Y295950D01*
X424908Y351249D02*
X431601D01*
X424908Y347706D02*
X431601D01*
X424908D02*
Y351249D01*
X431601Y347706D02*
Y351249D01*
X416601Y347706D02*
Y351249D01*
X409908Y347706D02*
X409908Y351249D01*
X409908Y347706D02*
X416601Y347706D01*
X409908Y351249D02*
X416601D01*
X292154Y292407D02*
Y295950D01*
X298847Y292407D02*
Y295950D01*
X292154D02*
X298847D01*
X292154Y292407D02*
X298847Y292407D01*
X370091Y313512D02*
Y326504D01*
X357098Y313512D02*
X370091D01*
X357098D02*
Y326504D01*
X370091D01*
X332949Y313850D02*
Y326842D01*
X345941D01*
Y313850D02*
Y326842D01*
X332949Y313850D02*
X345941D01*
X345903Y331186D02*
Y344178D01*
X332911Y331186D02*
X345903D01*
X332911D02*
Y344178D01*
X345903D01*
X356856Y331186D02*
Y344178D01*
X369848D01*
Y331186D02*
Y344178D01*
X356856Y331186D02*
X369848D01*
X454354Y293516D02*
Y302177D01*
X448646Y293516D02*
Y302177D01*
X454354D01*
X448646Y293516D02*
X454354D01*
X448646Y311516D02*
Y320177D01*
X454354Y311516D02*
Y320177D01*
X448646Y311516D02*
X454354D01*
X448646Y320177D02*
X454354D01*
D63*
X285800Y282697D02*
G03*
X288200Y282697I1200J0D01*
G01*
X414105Y322277D02*
G03*
X414105Y324677I0J1200D01*
G01*
X294650Y321378D02*
G03*
X294650Y318978I0J-1200D01*
G01*
D64*
X279150Y262997D02*
Y282697D01*
X294850D01*
Y262997D02*
Y282697D01*
X279150Y262997D02*
X294850D01*
Y281347D02*
X299200Y281347D01*
Y279346D02*
Y281347D01*
X294850Y279346D02*
X299200D01*
X294850D02*
X294850Y281347D01*
X294850Y276346D02*
X299200D01*
Y274346D02*
Y276346D01*
X294850Y274346D02*
X299200Y274346D01*
X294850Y276346D02*
X294850Y274346D01*
Y271346D02*
X299200Y271346D01*
Y269346D02*
Y271346D01*
X294850Y269346D02*
X299200Y269346D01*
X294850Y269346D02*
X294850Y271346D01*
Y266347D02*
X299200D01*
Y264347D02*
Y266347D01*
X294850Y264347D02*
X299200Y264347D01*
X294850Y264347D02*
Y266347D01*
X274800Y264347D02*
X279150Y264347D01*
X274800Y264347D02*
Y266347D01*
X279150Y266347D01*
Y264347D02*
Y266347D01*
X274800Y269346D02*
X279150Y269346D01*
X274800Y269346D02*
Y271346D01*
X279150D01*
X279150Y269346D01*
X274800Y274346D02*
X279150D01*
X274800D02*
Y276346D01*
X279150D01*
X279150Y274346D02*
X279150Y276346D01*
X274800Y279346D02*
X279150Y279346D01*
X274800Y279346D02*
Y281347D01*
X279150Y281347D01*
X279150Y279346D01*
X415255Y315777D02*
X417255D01*
X415255D02*
X415255Y311278D01*
X417255D01*
Y315777D01*
X420255D02*
X422255D01*
X420255Y311278D02*
Y315777D01*
Y311278D02*
X422255D01*
Y315777D01*
X425255D02*
X427255D01*
X425255Y311278D02*
X425255Y315777D01*
X425255Y311278D02*
X427255D01*
Y315777D01*
X430255D02*
X432255D01*
X430255Y311278D02*
Y315777D01*
Y311278D02*
X432255D01*
X432255Y315777D01*
X430255Y331177D02*
X432255D01*
X432255Y335678D02*
X432255Y331177D01*
X430255Y335678D02*
X432255D01*
X430255Y331177D02*
Y335678D01*
X425255Y331177D02*
X427255D01*
Y335678D01*
X425255D02*
X427255D01*
X425255D02*
X425255Y331177D01*
X420255D02*
X422255D01*
Y335678D01*
X420255D02*
X422255D01*
X420255Y331177D02*
Y335678D01*
X415255Y331177D02*
X417255D01*
Y335678D01*
X415255D02*
X417255D01*
X415255Y331177D02*
X415255Y335678D01*
X433405Y315777D02*
Y331177D01*
X414105D02*
X433405D01*
X414105Y315777D02*
Y331177D01*
Y315777D02*
X433405D01*
X291500Y327878D02*
X293500Y327878D01*
Y332378D01*
X291500D02*
X293500D01*
X291500Y327878D02*
Y332378D01*
X286500Y327878D02*
X288500Y327878D01*
Y332378D01*
X286500Y332378D02*
X288500Y332378D01*
X286500Y332378D02*
X286500Y327878D01*
X281500Y327878D02*
X283500Y327878D01*
Y332378D01*
X281500Y332378D02*
X283500Y332378D01*
X281500Y327878D02*
Y332378D01*
X276500Y327878D02*
X278500Y327878D01*
Y332378D01*
X276500D02*
X278500D01*
X276500Y327878D02*
Y332378D01*
Y312478D02*
X278500Y312478D01*
X276500Y307978D02*
Y312478D01*
Y307978D02*
X278500D01*
Y312478D01*
X281500D02*
X283500Y312478D01*
X281500Y307978D02*
Y312478D01*
Y307978D02*
X283500Y307978D01*
Y312478D01*
X286500D02*
X288500Y312478D01*
X286500Y307978D02*
Y312478D01*
Y307978D02*
X288500Y307978D01*
X288500Y312478D01*
X291500D02*
X293500Y312478D01*
X291500Y307978D02*
Y312478D01*
Y307978D02*
X293500Y307978D01*
Y312478D01*
X275350D02*
Y327878D01*
Y312478D02*
X294650D01*
X294650Y327878D01*
X275350Y327878D02*
X294650Y327878D01*
X439225Y247797D02*
X447500Y256071D01*
X439225Y280896D02*
X447500Y272621D01*
X412500Y280896D02*
X447500D01*
X412500Y247797D02*
Y280896D01*
Y247797D02*
X447500D01*
Y280896D01*
M02*
